SplineFontDB: 3.0
FontName: Mittaphap-Bold
FullName: Mittaphap Bold
FamilyName: Mittaphap
Weight: Bold
Copyright: Copyright (c) 2010 by . All rights reserved.
Version: 001.001
ItalicAngle: 0
UnderlinePosition: -91
UnderlineWidth: 23
Ascent: 800
Descent: 200
sfntRevision: 0x00010000
LayerCount: 2
Layer: 0 0 "Back"  1
Layer: 1 0 "Fore"  0
XUID: [1021 332 469972825 12602225]
FSType: 0
OS2Version: 2
OS2_WeightWidthSlopeOnly: 0
OS2_UseTypoMetrics: 1
CreationTime: 1282831461
ModificationTime: 1363862351
PfmFamily: 17
TTFWeight: 700
TTFWidth: 5
LineGap: 17
VLineGap: 0
Panose: 2 0 5 3 0 0 0 0 0 0
OS2TypoAscent: 1200
OS2TypoAOffset: 0
OS2TypoDescent: -439
OS2TypoDOffset: 0
OS2TypoLinegap: 17
OS2WinAscent: 1200
OS2WinAOffset: 0
OS2WinDescent: 439
OS2WinDOffset: 0
HheadAscent: 1200
HheadAOffset: 0
HheadDescent: -439
HheadDOffset: 0
OS2SubXSize: 650
OS2SubYSize: 699
OS2SubXOff: 0
OS2SubYOff: 140
OS2SupXSize: 650
OS2SupYSize: 699
OS2SupXOff: 0
OS2SupYOff: 479
OS2StrikeYSize: 50
OS2StrikeYPos: 250
OS2Vendor: 'PfEd'
OS2CodePages: 00010000.00000000
OS2UnicodeRanges: 8300002f.00000002.00000000.00000000
Lookup: 2 0 0 "ccmpGlyphCompositionDecompositi"  {"ccmpGlyphCompositionDecompositi subtable"  } ['ccmp' ('lao ' <'dflt' > ) ]
Lookup: 260 0 0 "cabove"  {"cabove subtable"  } ['mark' ('latn' <'dflt' > 'lao ' <'dflt' > 'DFLT' <'dflt' > ) ]
Lookup: 260 0 0 "udia"  {"udia subtable"  } ['mark' ('lao ' <'dflt' > 'DFLT' <'dflt' > ) ]
Lookup: 260 0 0 "cbelowldia"  {"cbelowldia subtable"  } ['mark' ('lao ' <'dflt' > 'DFLT' <'dflt' > ) ]
Lookup: 262 0 0 "tone"  {"tone subtable"  } ['mkmk' ('lao ' <'dflt' > 'DFLT' <'dflt' > ) ]
Lookup: 262 0 0 "lstack"  {"lstack subtable"  } ['mkmk' ('lao ' <'dflt' > 'DFLT' <'dflt' > ) ]
Lookup: 258 0 0 "kernHorizontalKerninginLatinloo"  {"kernHorizontalKerninginLatinloo subtable"  } ['kern' ('latn' <'dflt' > 'DFLT' <'dflt' > ) ]
MarkAttachClasses: 1
DEI: 91125

StartChar: .notdef
Encoding: 0 -1 0
Width: 569
Flags: W
HStem: -4 51<104 466> 401 50<104 466>
VStem: 54 50<47 401> 466 49<47 401>
LayerCount: 2
Fore
SplineSet
466 401 m 1
 104 401 l 1
 104 47 l 1
 466 47 l 1
 466 401 l 1
54 451 m 1
 515 451 l 1
 515 -4 l 1
 54 -4 l 1
 54 451 l 1
EndSplineSet
EndChar

StartChar: uni0E82
Encoding: 97 3714 1
Width: 624
GlyphClass: 2
Flags: W
HStem: -5 84<165.009 276.495> 53 87<339.633 472.404> 284 70<140.727 202.152> 481 77<211.003 433.916>
VStem: 49 87<357.978 417.432> 52 110<82.0893 145.095> 205 76<355.302 418.185> 465 111<347.501 453.715>
AnchorPoint: "ldia" 440 0 basechar 0
AnchorPoint: "cbelow" 440 0 basechar 0
AnchorPoint: "udia" 300 600 basechar 0
AnchorPoint: "cabove" 340 600 basechar 0
LayerCount: 2
Fore
SplineSet
496 0 m 0x77
 479 27 461 53 423 53 c 0x77
 365 53 282 -5 190 -5 c 0
 103 -5 52 36 52 114 c 0xb7
 52 202 142 234 268 275 c 2
 302 284 l 2
 407 318 465 338 465 397 c 0
 465 466 413 481 314 481 c 0
 271 481 236 479 208 473 c 1
 249 464 281 437 281 389 c 0
 281 337 250 284 171 284 c 0
 96 284 49 335 49 402 c 0xbb
 49 515 175 558 311 558 c 0
 472 558 576 515 576 393 c 0
 576 301 499 249 366 208 c 0
 276 180 162 157 162 117 c 0
 162 98 165 79 199 79 c 0xb7
 253 79 343 140 421 140 c 0
 486 140 536 110 571 48 c 0
 576 40 579 35 579 27 c 0
 579 10 534 -18 518 -18 c 0
 507 -18 505 -13 496 0 c 0x77
136 410 m 1x3b
 136 409 136 407 136 406 c 0
 136 368 150 354 174 354 c 0
 196 354 205 373 205 389 c 0
 205 409 191 420 174 420 c 0
 162 420 148 415 136 410 c 1x3b
EndSplineSet
EndChar

StartChar: uni0E84
Encoding: 98 3716 2
Width: 614
GlyphClass: 2
Flags: W
HStem: 0 74<150.34 210.598> 138 71<153.39 210.719> 481 77<182.778 414.055>
VStem: 49 99<76.1434 136.589> 53 105<377.243 457.212> 213 81<75.6194 135.139> 459 107<2.93091 438.609>
AnchorPoint: "ldia" 440 0 basechar 0
AnchorPoint: "cbelow" 440 0 basechar 0
AnchorPoint: "udia" 300 600 basechar 0
AnchorPoint: "cabove" 340 600 basechar 0
LayerCount: 2
Back
SplineSet
316 481 m 0xee
 200 481 158 462 158 415 c 0xee
 158 340 274 390 274 310 c 0
 274 251 174 254 157 219 c 1
 153 203 l 1
 165 207 177 209 189 209 c 0
 257 209 294 154 294 103 c 0
 294 42 245 0 181 0 c 0
 97 0 49 50 49 138 c 2
 49 159 l 2xf6
 49 246 101 282 174 304 c 1
 116 308 53 337 53 413 c 0
 53 528 169 558 317 558 c 0
 481 558 566 500 566 333 c 2
 566 35 l 2
 566 0 540 0 513 0 c 0
 488 0 459 0 459 35 c 2
 459 357 l 2
 459 438 426 481 316 481 c 0xee
148 129 m 1xf6
 148 108 l 2
 148 86 160 74 182 74 c 0
 197 74 213 85 213 106 c 0
 213 127 195 138 181 138 c 0
 171 138 159 134 148 129 c 1xf6
EndSplineSet
Fore
SplineSet
49 138 m 0xf6
 49 248 101 282 174 304 c 1
 116 304 53 337 53 413 c 0
 53 528 169 558 317 558 c 0
 481 558 566 500 566 333 c 2
 566 35 l 2
 566 0 540 0 513 0 c 0
 488 0 459 0 459 35 c 2
 459 357 l 2
 459 438 426 481 316 481 c 0
 200 481 158 462 158 415 c 0xee
 158 340 274 390 274 310 c 0
 274 251 174 254 157 219 c 1
 153 203 l 1
 165 207 177 209 189 209 c 0
 257 209 294 154 294 103 c 0
 294 42 245 0 181 0 c 0
 97 0 49 50 49 138 c 0xf6
148 129 m 1xf6
 148 108 l 2
 148 86 160 74 182 74 c 0
 197 74 213 85 213 106 c 0
 213 127 195 138 181 138 c 0
 171 138 159 134 148 129 c 1xf6
EndSplineSet
EndChar

StartChar: uni0E87
Encoding: 99 3719 3
Width: 464
GlyphClass: 2
Flags: W
HStem: -218 84<142 274.273> 330 72<128.491 184.906>
VStem: 49 77<404.894 469.593> 186 77<403.485 478.161> 309 107<-99.5373 461.928>
AnchorPoint: "ldia" 260 -200 basechar 0
AnchorPoint: "cbelow" 290 -180 basechar 0
AnchorPoint: "udia" 200 600 basechar 0
AnchorPoint: "cabove" 240 600 basechar 0
LayerCount: 2
Fore
SplineSet
141 -210 m 0
 126 -207 114 -201 114 -178 c 0
 114 -149 123 -130 142 -128 c 1
 146 -128 l 2
 160 -128 189 -134 210 -134 c 0
 291 -134 309 -75 309 0 c 2
 309 391 l 2
 309 440 301 470 249 479 c 1
 257 465 263 448 263 428 c 0
 263 370 218 330 161 330 c 0
 96 330 49 369 49 435 c 0
 49 514 120 558 222 558 c 0
 345 558 416 502 416 365 c 2
 416 16 l 2
 416 -158 329 -218 212 -218 c 0
 190 -218 160 -214 141 -210 c 0
175 479 m 1
 139 472 126 455 126 436 c 0
 126 414 141 402 159 402 c 0
 179 402 186 414 186 430 c 0
 186 451 180 457 175 479 c 1
EndSplineSet
EndChar

StartChar: uni0E88
Encoding: 100 3720 4
Width: 655
GlyphClass: 2
Flags: W
HStem: 0 77<411.918 487.528> 144 72<254.744 312> 287 68<253.866 313.875> 481 76<209.013 438.476>
VStem: 49 102<324.541 430.415> 174 77<219.264 284.622> 317 90<80.6019 147 216.863 284.916> 499 108<85.1667 421.165>
AnchorPoint: "ldia" 440 0 basechar 0
AnchorPoint: "cbelow" 440 0 basechar 0
AnchorPoint: "udia" 300 600 basechar 0
AnchorPoint: "cabove" 340 600 basechar 0
LayerCount: 2
Fore
SplineSet
448 0 m 0
 368 0 312 32 312 122 c 2
 312 147 l 1
 304 145 295 144 287 144 c 0
 224 144 174 182 174 250 c 0
 174 309 218 355 294 355 c 0
 402 355 407 272 407 174 c 0
 407 164 407 154 407 144 c 0
 407 91 414 77 449 77 c 0
 484 77 499 93 499 176 c 2
 499 329 l 2
 499 443 441 481 332 481 c 0
 201 481 151 441 151 359 c 0
 151 326 131 321 98 321 c 0
 72 321 49 326 49 357 c 0
 49 505 164 557 333 557 c 0
 480 557 607 514 607 295 c 2
 607 213 l 2
 607 36 544 0 448 0 c 0
317 222 m 1
 317 251 l 2
 317 273 302 287 284 287 c 0
 266 287 251 274 251 252 c 0
 251 235 262 216 285 216 c 0
 295 216 307 219 317 222 c 1
EndSplineSet
EndChar

StartChar: uni0E8A
Encoding: 101 3722 5
Width: 636
GlyphClass: 2
Flags: W
HStem: -5 84<165.009 269.077> 284 70<140.727 202.152> 481 77<211.003 433.994>
VStem: 49 87<357.978 417.432> 52 110<82.0893 145.262> 205 76<355.302 418.185> 465 103<-132.299 64.8452> 466 110<348.727 453.715>
AnchorPoint: "ldia" 326 0 basechar 0
AnchorPoint: "cbelow" 390 0 basechar 0
AnchorPoint: "udia" 300 600 basechar 0
AnchorPoint: "cabove" 340 600 basechar 0
LayerCount: 2
Fore
SplineSet
136 410 m 0xf4
 136 409 136 407 136 406 c 0
 136 368 150 354 174 354 c 0
 196 354 205 373 205 389 c 0
 205 409 191 420 174 420 c 0
 162 420 148 415 136 410 c 0xf4
199 79 m 0
 247 79 368 159 455 159 c 0
 541 159 568 99 568 25 c 0
 568 -44 588 -98 588 -134 c 0
 588 -150 540 -165 510 -165 c 0
 499 -165 491 -161 487 -145 c 0
 479 -117 465 -58 465 16 c 0
 465 58 455 69 427 69 c 0
 382 69 282 -5 190 -5 c 0
 103 -5 52 36 52 114 c 0xee
 52 203 142 235 274 278 c 0
 393.973 317.082 466 332 466 397 c 0
 466 466 413 481 314 481 c 0
 271 481 236 479 208 473 c 1
 249 464 281 437 281 389 c 0
 281 337 250 284 171 284 c 0
 96 284 49 335 49 402 c 0xf5
 49 515 175 558 311 558 c 0
 471 558 576 515 576 393 c 0
 576 301 498.893 249.345 366 208 c 0
 276 180 162 157 162 117 c 0xed
 162 98 165 79 199 79 c 0
EndSplineSet
EndChar

StartChar: uni0E8D
Encoding: 102 3725 6
Width: 569
GlyphClass: 2
Flags: W
HStem: 0 76<181.619 412.253> 349 70<148.516 211.054> 484 74<152.136 209.709>
VStem: 50 98<422.759 480.797> 53 105<99.809 180.497> 213 81<421.638 482.529> 459 107<120.561 554.5>
AnchorPoint: "ldia" 440 0 basechar 0
AnchorPoint: "cbelow" 440 0 basechar 0
AnchorPoint: "udia" 300 600 basechar 0
AnchorPoint: "cabove" 340 600 basechar 0
LayerCount: 2
Back
SplineSet
50 414 m 5
 50 428 l 2
 50 505 98 558 184 558 c 0
 253 558 294 505 294 454 c 0
 294 395 252 349 183 349 c 0
 172 349 159 352 148 356 c 1xf6
 156 295 274 318 274 245 c 0
 274 171 158 216 158 142 c 0
 158 102 180 76 316 76 c 0
 445 76 459 142 459 199 c 2
 459 524 l 2
 459 556 487 558 512 558 c 0
 541 558 566 557 566 524 c 2
 566 197 l 2
 566 78 494 0 317 0 c 0
 178 0 53 27 53 146 c 0xee
 53 213 107 253 174 253 c 1
 96 278 50 316 50 396 c 2
 50 414 l 5
148 428 m 1xf6
 159 423 170 419 181 419 c 0
 193 419 213 429 213 449 c 0
 213 472 197 484 182 484 c 0
 155 484 148 460 148 449 c 1
 148 428 l 1xf6
EndSplineSet
Fore
SplineSet
50 428 m 0xf6
 50 505 98 558 184 558 c 0
 253 558 294 505 294 454 c 0
 294 395 252 349 183 349 c 0
 172 349 159 352 148 356 c 1xf6
 156 295 274 318 274 245 c 0
 274 171 158 216 158 142 c 0
 158 102 180 76 316 76 c 0
 445 76 459 142 459 199 c 2
 459 524 l 2
 459 556 487 558 512 558 c 0
 541 558 566 557 566 524 c 2
 566 197 l 2
 566 78 494 0 317 0 c 0
 178 0 53 27 53 146 c 0xee
 53 213 107 253 174 253 c 1
 96 278 50 315 50 428 c 0xf6
148 428 m 1
 159 423 170 419 181 419 c 0
 193 419 213 429 213 449 c 0
 213 472 197 484 182 484 c 0
 155 484 148 460 148 449 c 2
 148 428 l 1
EndSplineSet
EndChar

StartChar: uni0E94
Encoding: 103 3732 7
Width: 651
GlyphClass: 2
Flags: W
HStem: 0 71<161.208 221.419> 135 74<159.516 221.517> 481 77<211.815 411.311>
VStem: 52 107<74.8788 133.93 204 426.45> 224 76<72.8997 132.753> 464 107<2.93091 426.927>
AnchorPoint: "ldia" 430 0 basechar 0
AnchorPoint: "cbelow" 430 0 basechar 0
AnchorPoint: "udia" 300 600 basechar 0
AnchorPoint: "cabove" 340 600 basechar 0
LayerCount: 2
Fore
SplineSet
464 35 m 2
 464 328 l 2
 464 439 424 481 311 481 c 0
 199 481 159 439 159 330 c 2
 159 204 l 1
 170 207 181 209 192 209 c 0
 256 209 300 162 300 103 c 0
 300 42 253 0 184 0 c 0
 83 0 52 70 52 167 c 1
 52 330 l 2
 52 501 144 558 312 558 c 0
 479 558 571 501 571 331 c 2
 571 35 l 2
 571 0 545 0 518 0 c 0
 493 0 464 0 464 35 c 2
159 128 m 1
 159 103 l 2
 159 88 170 71 193 71 c 0
 209 71 224 83 224 103 c 0
 224 125 207 135 192 135 c 0
 182 135 170 132 159 128 c 1
EndSplineSet
EndChar

StartChar: uni0E95
Encoding: 104 3733 8
Width: 681
GlyphClass: 2
Flags: W
HStem: 0 71<158.202 217.962> 135 74<156.516 218.056> 481 77<176.539 267.546 411.641 504.628>
VStem: 49 107<72.8809 133.93 204 460.16> 220 77<72.7934 132.963> 286 108<326.673 461.751> 523 110<2.7911 462.448>
AnchorPoint: "ldia" 440 0 basechar 0
AnchorPoint: "cbelow" 460 0 basechar 0
AnchorPoint: "udia" 350 600 basechar 0
AnchorPoint: "cabove" 340 600 basechar 0
LayerCount: 2
Fore
SplineSet
633 325 m 6xfa
 633 30 l 6
 633 0 604 0 577 0 c 4
 552 0 523 0 523 30 c 6
 523 368 l 6
 523 454 502 481 459 481 c 4
 415 481 394 458 394 361 c 4
 394 330 373 322 340 322 c 4
 309 322 286 329 286 361 c 4xf6
 286 457 264 481 220 481 c 4
 169 481 156 435 156 367 c 6
 156 204 l 5
 167 207 178 209 189 209 c 4
 253 209 297 162 297 103 c 4
 297 42 250 0 181 0 c 4
 80 0 49 77 49 174 c 6
 49 336 l 6
 49 500 102 558 206 558 c 4
 273 558 320 535 340 463 c 5
 363 538 409 558 477 558 c 4
 578 558 633 502 633 325 c 6xfa
156 128 m 1
 156 103 l 2
 156 88 167 71 189 71 c 0
 206 71 220 83 220 103 c 0xfa
 220 125 204 135 189 135 c 0
 179 135 167 132 156 128 c 1
EndSplineSet
EndChar

StartChar: uni0E96
Encoding: 105 3734 9
Width: 707
GlyphClass: 2
Flags: W
HStem: 0 71<256.98 316.814> 135 74<253.516 315.935> 352 71<79.5189 146.414> 481 77<352.324 501.976> 488 70<78.7399 142.527>
VStem: 3 74<425.352 486.247> 147 106<73.2322 133.93 204 356> 318 77<72.7137 133.114> 533 107<-48.0139 447.554>
AnchorPoint: "ldia" 400 0 basechar 0
AnchorPoint: "cbelow" 420 0 basechar 0
AnchorPoint: "udia" 350 600 basechar 0
AnchorPoint: "cabove" 440 600 basechar 0
LayerCount: 2
Fore
SplineSet
253 204 m 1xf780
 264 207 275 209 286 209 c 0
 361 209 395 152 395 106 c 0
 395 44 352 0 279 0 c 0
 188 0 147 56 147 149 c 2
 147 356 l 1
 134 353 121 352 108 352 c 0
 39 352 3 396 3 455 c 0
 3 506 38 558 115 558 c 0xef80
 183 558 226 535 244 485 c 1
 301 520 367 558 445 558 c 0
 550 558 640 502 640 355 c 2
 640 60 l 2
 640 -18 679 -81 679 -105 c 0
 679 -131 653 -145 616 -145 c 0
 586 -145 574 -136 569 -120 c 1
 569 -120 533 -28 533 50 c 2
 533 348 l 2
 533 405 528 481 438 481 c 0
 372 481 314 439 253 403 c 1
 253 204 l 1xf780
253 128 m 1
 253 108 l 2
 253 90 261 71 287 71 c 0
 304 71 318 83 318 102 c 0
 318 129 298 135 286 135 c 0
 276 135 264 132 253 128 c 1
147 430 m 1
 147 460 144 488 109 488 c 0
 92 488 77 478 77 455 c 0
 77 437 86 423 112 423 c 0
 123 423 135 425 147 430 c 1
EndSplineSet
EndChar

StartChar: uni0E97
Encoding: 106 3735 10
Width: 675
GlyphClass: 2
Flags: W
HStem: 0 77<178.227 284.946> 348 74<77.5874 109.852> 481 77<433.303 527.782> 488 70<76.8643 137.035>
VStem: -1 76<424.296 486.472> 49 109<97.2562 274.185> 140 103<429.281 484.846> 306 107<100.961 460.657> 547 111<3.64868 462.752>
AnchorPoint: "ldia" 520 0 basechar 0
AnchorPoint: "cbelow" 520 0 basechar 0
AnchorPoint: "udia" 330 600 basechar 0
AnchorPoint: "cabove" 440 600 basechar 0
LayerCount: 2
Fore
SplineSet
658 359 m 2xe580
 658 32 l 2
 658 5 638 0 604 0 c 0
 573 0 547 3 547 32 c 2
 547 355 l 2
 547 420 544 481 482 481 c 0
 432 481 413 446 413 380 c 2
 413 202 l 2
 413 25 303 0 218 0 c 0
 107 0 49 64 49 177 c 0xe580
 49 251 84 299 110 348 c 1
 108 348 107 348 105 348 c 0
 51 348 -1 387 -1 454 c 0
 -1 509 40 558 116 558 c 0
 192 558 243 509 243 440 c 0xdb80
 243 336 158 300 158 172 c 0
 158 114 176 77 233 77 c 0
 297 77 306 122 306 214 c 2
 306 376 l 2
 306 520 387 558 482 558 c 0
 596 558 658 509 658 359 c 2xe580
140 429 m 1xdb80
 141 435 140 441 140 448 c 0
 140 476 125 488 107 488 c 0
 90 488 75 476 75 454 c 0
 75 436 89 422 109 422 c 0
 118 422 130 425 140 429 c 1xdb80
EndSplineSet
EndChar

StartChar: uni0E99
Encoding: 107 3737 11
Width: 714
GlyphClass: 2
Flags: W
HStem: 0 76<57.9879 159.695 348.305 520.313> 349 73<135.066 196.484> 486 72<135.038 195.032>
VStem: 56 77<423.949 484.289> 197 108<121.808 354 423.07 482.416> 559 107<116.768 554.339>
AnchorPoint: "ldia" 500 0 basechar 0
AnchorPoint: "cbelow" 500 0 basechar 0
AnchorPoint: "udia" 350 600 basechar 0
AnchorPoint: "cabove" 440 600 basechar 0
LayerCount: 2
Fore
SplineSet
436 76 m 0
 528 76 559 113 559 219 c 2
 559 522 l 2
 559 556 587 558 612 558 c 0
 639 558 666 555 666 522 c 2
 666 218 l 2
 666 32 553 0 446 0 c 0
 363 0 280 21 252 94 c 1
 235 24 169 0 83 0 c 0
 69 0 56 9 56 39 c 0
 56 72 65 78 82 78 c 0
 176 78 197 121 197 234 c 2
 197 354 l 1
 186 351 175 349 164 349 c 0
 100 349 56 394 56 454 c 0
 56 515 103 558 172 558 c 0
 273 558 305 487 305 390 c 2
 305 223 l 2
 305 111 347 76 436 76 c 0
197 429 m 1
 197 455 l 2
 197 470 186 486 164 486 c 0
 147 486 133 475 133 454 c 0
 133 433 149 422 164 422 c 0
 174 422 186 425 197 429 c 1
EndSplineSet
EndChar

StartChar: uni0E9A
Encoding: 108 3738 12
Width: 666
GlyphClass: 2
Flags: W
HStem: 0 77<254.683 459.621> 348 74<127.755 159.71> 486 72<127.342 186.118>
VStem: 49 76<423.896 483.024> 104 110<113.27 271.18> 190 99<423.07 483.981> 510 107<128.574 554.339>
AnchorPoint: "ldia" 440 0 basechar 0
AnchorPoint: "cbelow" 460 0 basechar 0
AnchorPoint: "udia" 300 600 basechar 0
AnchorPoint: "cabove" 340 600 basechar 0
LayerCount: 2
Fore
SplineSet
617 231 m 2xea
 617 46 511 0 364 0 c 0
 231 0 104 33 104 180 c 0xea
 104 250 135 300 160 348 c 1
 158 348 156 348 154 348 c 0
 96 348 49 393 49 454 c 0
 49 517 93 558 166 558 c 0
 249 558 289 503 289 413 c 1xf6
 278 332 214 267 214 178 c 0
 214 102 264 77 361 77 c 0
 465 77 510 114 510 218 c 2
 510 522 l 2
 510 556 539 558 564 558 c 0
 591 558 617 555 617 522 c 2
 617 231 l 2xea
189 429 m 1
 190 435 190 441 190 447 c 0
 190 477 174 486 158 486 c 0
 141 486 125 475 125 454 c 0xf6
 125 434 140 422 158 422 c 0
 167 422 178 425 189 429 c 1
EndSplineSet
EndChar

StartChar: uni0E9B
Encoding: 109 3739 13
Width: 690
GlyphClass: 2
Flags: W
HStem: 0 77<255.069 455.353> 348 74<127.755 159.722> 486 72<127.342 186.118>
VStem: 49 76<423.896 483.024> 104 110<113.27 260.653> 190 99<422.982 482.966> 505 108<127.773 666.482>
AnchorPoint: "ldia" 440 0 basechar 0
AnchorPoint: "cbelow" 460 0 basechar 0
AnchorPoint: "udia" 260 600 basechar 0
AnchorPoint: "cabove" 340 600 basechar 0
LayerCount: 2
Fore
SplineSet
613 528 m 2xea
 613 231 l 2
 613 44 511 0 364 0 c 0
 231 0 104 33 104 180 c 0xea
 104 250 135 300 160 348 c 1
 158 348 156 348 154 348 c 0
 96 348 49 393 49 454 c 0
 49 517 93 558 166 558 c 0
 249 558 289 495 289 413 c 0xf6
 289 317 214 267 214 178 c 0
 214 102 266 77 361 77 c 0
 458 77 505 113 505 218 c 2
 505 534 l 2
 505 615 528 695 533 710 c 0
 540 732 546 738 566 738 c 0
 592 738 647 723 642 699 c 0
 634 653 613 619 613 528 c 2xea
190 429 m 1xf6
 191 435 190 441 190 447 c 0
 190 477 174 486 158 486 c 0
 141 486 125 475 125 454 c 0
 125 434 140 422 158 422 c 0
 167 422 179 425 190 429 c 1xf6
EndSplineSet
EndChar

StartChar: uni0E9C
Encoding: 110 3740 14
Width: 738
GlyphClass: 2
Flags: W
HStem: 0 77<172.73 267.735 412.192 505.715> 350 73<156.516 217.934 460.798 524> 488 71<158.401 217.843 461.509 519.184>
VStem: 49 107<92.6602 355 424.07 485.532> 220 77<425.125 485.566> 287 107<95.1892 259.688> 524 108<94.6633 355> 608 81<506.07 599.923>
AnchorPoint: "ldia" 440 0 basechar 0
AnchorPoint: "cbelow" 460 0 basechar 0
AnchorPoint: "udia" 300 600 basechar 0
AnchorPoint: "cabove" 340 600 basechar 0
LayerCount: 2
Fore
SplineSet
206 0 m 0xf2
 102 0 49 57 49 222 c 2
 49 394 l 2
 49 491 82 559 181 559 c 0
 250 559 297 515 297 455 c 0
 297 396 253 350 189 350 c 0
 178 350 167 352 156 355 c 1
 156 191 l 2
 156 109 169 77 220 77 c 0xfa
 258 77 287 96 287 189 c 1
 287 226 l 2
 287 258 309 264 340 264 c 0
 372 264 394 257 394 226 c 2
 394 189 l 2
 394 95 421 77 460 77 c 0
 504 77 524 101 524 189 c 2
 524 355 l 1xf6
 513 353 503 353 492 353 c 0
 435 353 384 387 384 452 c 0
 384 514 430 558 503 558 c 0
 552 558 584 537 604 505 c 1
 606 515 608 526 608 537 c 0
 608 579 577 608 577 619 c 0
 577 642 600 658 630 658 c 0
 668 658 689 594 689 543 c 0xf1
 689 485 667 439 632 406 c 1
 632 403 632 399 632 396 c 2
 632 233 l 2
 632 54 577 0 477 0 c 0
 409 0 362 16 340 91 c 1
 320 19 273 0 206 0 c 0xf2
524 426 m 1
 524 439 l 2
 524 470 514 485 489 485 c 0
 476 485 464 484 461 466 c 1
 453 446 468 423 494 423 c 0
 505 423 515 424 524 426 c 1
156 430 m 1
 167 426 179 423 189 423 c 0
 204 423 220 434 220 455 c 0
 220 476 206 488 189 488 c 0
 167 488 156 471 156 456 c 2
 156 430 l 1
EndSplineSet
EndChar

StartChar: uni0E9D
Encoding: 111 3741 15
Width: 695
GlyphClass: 2
Flags: W
HStem: 0 77<174.001 267.672 411.155 504.389> 350 73<156.493 217.467> 486 72<157.178 218.172>
VStem: 49 107<92.0259 355 424.07 483.379> 220 77<425.125 484.619> 286 107<94.3859 259.782> 522 110<94.8044 666.016>
AnchorPoint: "ldia" 440 0 basechar 0
AnchorPoint: "cbelow" 470 0 basechar 0
AnchorPoint: "udia" 250 600 basechar 0
AnchorPoint: "cabove" 340 600 basechar 0
LayerCount: 2
Fore
SplineSet
657 686 m 0xf6
 657 670 632 592 632 512 c 2
 632 232 l 2
 632 55 578 0 477 0 c 0
 409 0 362 16 340 91 c 1
 320 18 273 0 206 0 c 0
 94 0 49 63 49 244 c 2
 49 413 l 2
 49 503 92 558 181 558 c 0
 250 558 297 515 297 455 c 0
 297 396 252 350 188 350 c 0
 177 350 166 352 156 355 c 1
 156 189 l 2
 156 111 169 77 220 77 c 0xfa
 259 77 286 96 286 188 c 2
 286 226 l 2
 286 258 308 264 340 264 c 0
 372 264 393 257 393 226 c 2
 393 188 l 2
 393 94 420 77 459 77 c 0
 502 77 522 103 522 189 c 2
 522 514 l 2
 522 599 542 672 546 688 c 0
 552 708 562 718 580 718 c 0
 628 718 657 705 657 686 c 0xf6
156 430 m 1
 167 426 179 423 189 423 c 0
 204 423 220 434 220 455 c 0
 220 476 206 486 189 486 c 0
 173 486 156 476 156 456 c 1
 156 430 l 1
EndSplineSet
EndChar

StartChar: uni0E9E
Encoding: 112 3742 16
Width: 735
GlyphClass: 2
Flags: W
HStem: 0 77<223.482 319.692 465.352 558.935> 348 74<123.022 154> 486 72<121.831 181.317>
VStem: 44 76<424.241 484.543> 94 109<96.0634 272.548> 185 103<429.281 483.957> 340 107<96.1471 553.22> 576 110<89.9953 554.349>
AnchorPoint: "ldia" 460 0 basechar 0
AnchorPoint: "cbelow" 490 0 basechar 0
AnchorPoint: "udia" 350 600 basechar 0
AnchorPoint: "cabove" 440 600 basechar 0
LayerCount: 2
Fore
SplineSet
271 77 m 0xeb
 309 77 340 95 340 188 c 2
 340 519 l 2
 340 552 361 558 393 558 c 0
 425 558 447 550 447 519 c 2
 447 188 l 2
 447 94 476 77 515 77 c 0
 558 77 576 99 576 189 c 2
 576 526 l 2
 576 556 607 558 632 558 c 0
 659 558 686 554 686 526 c 2
 686 232 l 2
 686 55 631 0 530 0 c 0
 463 0 415 16 393 91 c 1
 373 18 321 0 254 0 c 0
 160 0 94 60 94 177 c 0xeb
 94 247 128 298 154 348 c 1
 152 348 151 348 150 348 c 0
 90 348 44 394 44 454 c 0
 44 517 93 558 161 558 c 0
 230 558 288 516 288 438 c 0xf7
 288 342 203 294 203 172 c 0
 203 104 230 77 271 77 c 0xeb
185 429 m 1xf7
 186 435 185 440 185 446 c 0
 185 478 169 486 152 486 c 0
 135 486 120 475 120 454 c 0
 120 437 133 422 154 422 c 0
 163 422 175 425 185 429 c 1xf7
EndSplineSet
EndChar

StartChar: uni0E9F
Encoding: 113 3743 17
Width: 750
GlyphClass: 2
Flags: W
HStem: 0 77<228.229 319.22 464.876 557.901> 348 74<128.022 159> 486 72<126.831 186.619>
VStem: 49 76<424.241 483.414> 99 109<96.0293 272.455> 340 107<96.1471 553.603> 576 110<94.8044 663.551>
AnchorPoint: "ldia" 460 0 basechar 0
AnchorPoint: "cbelow" 510 0 basechar 0
AnchorPoint: "udia" 300 600 basechar 0
AnchorPoint: "cabove" 390 600 basechar 0
LayerCount: 2
Fore
SplineSet
576 189 m 2xee
 576 533 l 2
 576 615 600 695 605 709 c 1
 611 731 618 738 637 738 c 0
 661 738 720 723 716 698 c 0
 708 652 686 615 686 527 c 2
 686 232 l 2
 686 55 631 0 530 0 c 0
 463 0 415 16 393 91 c 1
 373 18 327 0 259 0 c 0
 165 0 99 60 99 177 c 0xee
 99 247 133 298 159 348 c 1
 157 348 156 348 155 348 c 0
 95 348 49 394 49 454 c 0xf6
 49 518 98 558 166 558 c 0
 227 558 280 524 289 463 c 0
 292 447 291 430 289 413 c 0
 276 335 208 282 208 172 c 0
 208 116 230 77 271 77 c 0
 309 77 340 95 340 188 c 2
 340 520 l 2
 340 553 361 558 393 558 c 0
 425 558 447 551 447 520 c 2
 447 188 l 2
 447 94 474 77 513 77 c 0
 556 77 576 103 576 189 c 2xee
189 429 m 1
 190 435 190 440 190 446 c 0
 190 478 174 486 157 486 c 0
 140 486 125 475 125 454 c 0xf6
 125 437 138 422 159 422 c 0
 168 422 179 425 189 429 c 1
EndSplineSet
EndChar

StartChar: uni0EA1
Encoding: 114 3745 18
Width: 834
GlyphClass: 2
Flags: W
HStem: 0 76<130.364 186.089 434.332 625.987> 144 74<127.323 188.932>
VStem: 49 77<80.3484 142.235> 191 65<82.5688 142.314> 273 108<129.429 554.314> 678 107<131.569 554.339>
AnchorPoint: "ldia" 580 0 basechar 0
AnchorPoint: "cbelow" 590 0 basechar 0
AnchorPoint: "udia" 450 600 basechar 0
AnchorPoint: "cabove" 490 600 basechar 0
LayerCount: 2
Back
SplineSet
182.6 0 m 5
 159 0 l 0
 87 0 49 53 49 113 c 0
 49 179 93 218 160 218 c 0
 214 218 256 180 256 128 c 0
 256 110 252 94 248 82 c 1
 271 93 273 117 273 160 c 2
 273 522 l 2
 273 555 300 558 327 558 c 0
 352 558 381 557 381 522 c 2
 381 222 l 2
 381 110 438 76 531 76 c 0
 624 76 678 109 678 222 c 2
 678 522 l 2
 678 556 707 558 732 558 c 0
 759 558 785 555 785 522 c 2
 785 244 l 2
 785 38 675 0 530 0 c 0
 450 0 355 20 332 92 c 1
 322 36 261 0 210 0 c 0
 182.6 0 l 5
186 73 m 1
 188 83 191 99 191 108 c 0
 191 128 180 144 159 144 c 0
 138 144 126 132 126 113 c 0
 126 91 144 73 186 73 c 1
EndSplineSet
Fore
SplineSet
186 73 m 1
 188 83 191 99 191 108 c 0
 191 128 180 144 159 144 c 0
 138 144 126 132 126 113 c 0
 126 91 144 73 186 73 c 1
173 0 m 0
 89 0 49 53 49 113 c 0
 49 179 93 218 160 218 c 0
 214 218 256 180 256 128 c 0
 256 110 252 94 248 82 c 1
 271 93 273 117 273 160 c 2
 273 522 l 2
 273 555 300 558 327 558 c 0
 352 558 381 557 381 522 c 2
 381 222 l 2
 381 110 438 76 531 76 c 0
 624 76 678 109 678 222 c 2
 678 522 l 2
 678 556 707 558 732 558 c 0
 759 558 785 555 785 522 c 2
 785 244 l 2
 785 38 675 0 530 0 c 0
 450 0 355 20 332 92 c 1
 322 36 268 0 173 0 c 0
EndSplineSet
EndChar

StartChar: uni0EA2
Encoding: 115 3746 19
Width: 586
GlyphClass: 2
Flags: W
HStem: 0 76<164.318 379.316> 350 70<133.469 195.389> 484 74<136.481 195.333>
VStem: 34 105<101.329 180.195 321.088 356 420.175 482.027> 197 82<422.67 481.854> 427 108<125.313 656.917>
AnchorPoint: "ldia" 410 0 basechar 0
AnchorPoint: "cbelow" 450 0 basechar 0
AnchorPoint: "udia" 250 600 basechar 0
AnchorPoint: "cabove" 340 600 basechar 0
LayerCount: 2
Back
SplineSet
34 417.68 m 1
 34 425 l 2
 34 497 70 558 168 558 c 0
 235 558 279 506 279 455 c 0
 279 409 247 350 163 350 c 0
 153 350 143 353 133 356 c 1
 133 285 255 323 255 249 c 0
 255 175 139 215 139 143 c 0
 139 84 211 76 286 76 c 0
 361 76 427 102 427 194 c 2
 427 526 l 2
 427 604 455 695 455 695 c 2
 459 714 470 721 483 721 c 0
 489 721 528 714 536 712 c 0
 556 706 563 701 563 689 c 0
 563 665 535 608 535 526 c 2
 535 225 l 2
 535 45 433 0 281 0 c 0
 124 0 34 47 34 145 c 0
 34 228 106 248 155 256 c 1
 149 258 142 260 136 261 c 0
 78 279 34 308 34 411 c 2
 34 417.68 l 1
133 428 m 1
 143 423 155 420 165 420 c 0
 177 420 197 428 197 453 c 0
 197 476 180 484 164 484 c 0
 139 484 133 461 133 450 c 2
 133 428 l 1
EndSplineSet
Fore
SplineSet
133 428 m 1
 143 423 155 420 165 420 c 0
 177 420 197 428 197 453 c 0
 197 476 180 484 164 484 c 0
 139 484 133 461 133 450 c 2
 133 428 l 1
34 425 m 0
 34 497 70 558 168 558 c 0
 235 558 279 506 279 455 c 0
 279 409 247 350 163 350 c 0
 153 350 143 353 133 356 c 1
 133 285 255 323 255 249 c 0
 255 175 139 215 139 143 c 0
 139 84 211 76 286 76 c 0
 361 76 427 102 427 194 c 2
 427 526 l 2
 427 604 455 695 455 695 c 2
 459 714 470 721 483 721 c 0
 489 721 528 714 536 712 c 0
 556 706 563 701 563 689 c 0
 563 665 535 608 535 526 c 2
 535 225 l 2
 535 45 433 0 281 0 c 0
 124 0 34 47 34 145 c 0
 34 228 106 248 155 256 c 1
 149 258 142 260 136 261 c 0
 78 279 34 315 34 425 c 0
EndSplineSet
EndChar

StartChar: uni0EA3
Encoding: 116 3747 20
Width: 632
GlyphClass: 2
Flags: W
HStem: 0 75<210.759 429.75> 198 71<140.853 202.467> 479 78<173.208 444.997>
VStem: 49 87<139.628 194.161> 52 108<409.356 460.863> 205 76<134.859 195.993> 464 109<105.793 211.55>
AnchorPoint: "ldia" 440 0 basechar 0
AnchorPoint: "cbelow" 440 0 basechar 0
AnchorPoint: "udia" 300 600 basechar 0
AnchorPoint: "cabove" 340 600 basechar 0
LayerCount: 2
Fore
SplineSet
210 81 m 1xf6
 239 76 272 75 311 75 c 0
 406 75 464 93 464 162 c 0
 464 222 407 240 298 273 c 0
 286 277 275 280 264 283 c 0
 138 320 52 344 52 433 c 0
 52 535 163 557 309 557 c 0
 428 557 508 531 561 483 c 0
 571 473 572 465 562 453 c 1
 556 437 542 414 527 409 c 1
 522 409 517 413 513 418 c 0
 466 461 390 479 311 479 c 0
 232 479 160 471 160 435 c 0xee
 160 399 274 378 364 351 c 0
 502 310 573 258 573 166 c 0
 573 45 469 0 308 0 c 0
 172 0 49 37 49 150 c 0
 49 217 96 269 171 269 c 0
 250 269 281 225 281 174 c 0
 281 126 250 93 210 81 c 1xf6
136 143 m 1xf6
 148 138 161 133 173 133 c 0
 190 133 205 144 205 164 c 0
 205 180 197 198 175 198 c 0
 151 198 136 184 136 147 c 0
 136 146 136 144 136 143 c 1xf6
EndSplineSet
EndChar

StartChar: uni0EA5
Encoding: 117 3749 21
Width: 590
GlyphClass: 2
Flags: W
HStem: 0 88<397.103 450.716> 0 60<106.831 163.19> 123 62<123.36 163.725> 203 72<124.048 246.298> 481 77<185.401 405.099>
VStem: 17 84<62.5679 120.464> 41 105<344.057 442.308> 165 71<61.0205 121.786> 455 112<89.4491 433.406>
AnchorPoint: "ldia" 440 0 basechar 0
AnchorPoint: "cbelow" 440 0 basechar 0
AnchorPoint: "udia" 300 600 basechar 0
AnchorPoint: "cabove" 340 600 basechar 0
LayerCount: 2
Fore
SplineSet
298 558 m 0xbb80
 421 558 567 539 567 340 c 2
 567 164 l 2
 567 57 523 0 438 0 c 0xbb80
 272 0 327 203 182 203 c 0
 159 203 138 196 123 182 c 1
 130 184 138 185 145 185 c 0
 213 185 236 129 236 94 c 0
 236 47 208 0 135 0 c 0
 59 0 17 51 17 123 c 0x7d80
 17 230 116 275 190 275 c 0
 372 275 371 88 426 88 c 0
 456 88 455 118 455 171 c 2
 455 337 l 2
 455 459 399 481 299 481 c 0
 216 481 146 475 146 366 c 0
 146 345 125 342 94 342 c 0
 58 342 41 345 41 370 c 0
 41 518 157 558 298 558 c 0xbb80
101 112 m 1x7d80
 101 69 118 60 138 60 c 0
 158 60 165 79 165 95 c 0
 165 112 154 123 137 123 c 0
 128 123 114 118 101 112 c 1x7d80
EndSplineSet
EndChar

StartChar: uni0EA7
Encoding: 118 3751 22
Width: 623
GlyphClass: 2
Flags: W
HStem: 0 75<213.687 409.703> 193 71<135.853 197.467> 481 76<193.434 417.792>
VStem: 44 87<134.642 189.161> 51 105<344.331 443.681> 200 76<130.175 190.993> 465 110<129.986 431.649>
AnchorPoint: "ldia" 440 0 basechar 0
AnchorPoint: "cbelow" 440 0 basechar 0
AnchorPoint: "udia" 300 600 basechar 0
AnchorPoint: "cabove" 340 600 basechar 0
LayerCount: 2
Fore
SplineSet
213 79 m 1xf6
 240 75 273 75 309 75 c 0
 416 75 465 115 465 218 c 2
 465 330 l 2
 465 442 431 481 312 481 c 0
 211 481 156 466 156 368 c 0
 156 344 135 342 102 342 c 0
 69 342 51 346 51 369 c 0xee
 51 510 154 557 313 557 c 0
 463 557 575 524 575 308 c 2
 575 218 l 2
 575 65 463 0 306 0 c 0
 169 0 44 32 44 145 c 0
 44 212 91 264 166 264 c 0
 245 264 276 220 276 169 c 0
 276 124 249 93 213 79 c 1xf6
131 138 m 1xf6
 143 133 156 128 168 128 c 0
 185 128 200 139 200 159 c 0
 200 175 192 193 170 193 c 0
 146 193 131 179 131 142 c 0
 131 140 131 139 131 138 c 1xf6
EndSplineSet
EndChar

StartChar: uni0EAA
Encoding: 119 3754 23
Width: 665
GlyphClass: 2
Flags: W
HStem: 2 86<427.047 505.532> 2 57<140.874 200.114> 119 62<156.235 200.033> 191 77<157.737 271.014> 313 80<166.991 389.326> 482 76<173.049 411.677>
VStem: 51 85<61.7955 117.154> 63 94<407.038 463.279> 201 72<60.1211 117.748> 481 112<91.6034 375.169>
AnchorPoint: "ldia" 440 0 basechar 0
AnchorPoint: "cbelow" 440 0 basechar 0
AnchorPoint: "udia" 300 600 basechar 0
AnchorPoint: "cabove" 340 600 basechar 0
LayerCount: 2
Back
SplineSet
593 164 m 2x7dc0
 593 43 537 8 484 2 c 1x7dc0
 465 2 449 2 437 5 c 1
 308 24 339 191 211 191 c 0
 187 191 169 187 156 177 c 1
 164 179 172 181 180 181 c 0
 243 181 273 136 273 89 c 0
 273 40 242 2 169 2 c 0
 90 2 51 54 51 122 c 0xbec0
 51 233 149 268 217 268 c 0
 400 268 401 88 452 88 c 0
 477 88 481 119 481 191 c 2
 481 330 l 2
 481 348 480 363 477 377 c 1
 425 341 355 313 267 313 c 0
 169 313 63 343 63 430 c 0
 63 524 155 558 295 558 c 0
 374 558 448 547 502 514 c 1
 520 542 535 569 544 584 c 0
 552 597 555 601 568 601 c 0
 585 601 621 576 615 560 c 0
 605 532 582 494 558 461 c 1
 581 428 593 385 593 328 c 2
 593 164 l 2x7dc0
440 443 m 1
 402 476 343 482 277 482 c 0
 220 482 157 470 157 434 c 0
 157 404 211 393 263 393 c 0
 347 393 403 415 440 443 c 1
136 109 m 1xbec0
 136 67 155 59 173 59 c 0
 192 59 201 70 201 91 c 0
 201 110 192 119 172 119 c 0
 161 119 148 115 136 109 c 1xbec0
EndSplineSet
Fore
SplineSet
136 109 m 1x7ec0
 136 67 155 59 173 59 c 0
 192 59 201 70 201 91 c 0
 201 110 192 119 172 119 c 0
 161 119 148 115 136 109 c 1x7ec0
440 443 m 1
 402 476 343 482 277 482 c 0
 220 482 157 470 157 434 c 0x3dc0
 157 404 211 393 263 393 c 0
 347 393 403 415 440 443 c 1
473 2 m 0xbdc0
 297 2 339 191 211 191 c 0
 187 191 169 187 156 177 c 1
 164 179 172 181 180 181 c 0
 243 181 273 136 273 89 c 0
 273 40 242 2 169 2 c 0
 90 2 51 54 51 122 c 0x7ec0
 51 233 149 268 217 268 c 0
 400 268 401 88 452 88 c 0
 477 88 481 119 481 191 c 2
 481 330 l 2
 481 348 480 363 477 377 c 1
 425 341 355 313 267 313 c 0
 169 313 63 343 63 430 c 0
 63 524 155 558 295 558 c 0
 374 558 448 547 502 514 c 1
 520 542 535 569 544 584 c 0
 552 597 555 601 568 601 c 0
 585 601 621 576 615 560 c 0
 605 532 582 494 558 461 c 1
 581 428 593 385 593 328 c 2
 593 164 l 2
 593 43 536 2 473 2 c 0xbdc0
EndSplineSet
EndChar

StartChar: uni0EAB
Encoding: 120 3755 24
Width: 900
GlyphClass: 2
Flags: W
HStem: 0 77<246.094 414.206> 347 75<128.089 160.582 392.874 457.484> 486 71<127.342 186.118 393.194 452.77 613.751 725.755>
VStem: 49 76<423.857 483.024> 104 106<111.354 268.711> 190 99<423.07 483.981> 314 77<423.514 484.278> 458 108<122.852 352 423.635 445.714> 748 104<3.25367 461.051>
AnchorPoint: "ldia" 640 0 basechar 0
AnchorPoint: "cbelow" 630 0 basechar 0
AnchorPoint: "udia" 400 600 basechar 0
AnchorPoint: "cabove" 490 600 basechar 0
LayerCount: 2
Fore
SplineSet
682 557 m 0xeb80
 795 557 852 504 852 334 c 2
 852 31 l 2
 852 3 826 0 799 0 c 0
 776 0 748 1 748 25 c 1
 748 332 l 1
 748 393 l 1
 748 443 734 481 674 481 c 0
 629 481 597 456 566 428 c 1
 566 424 566 420 566 416 c 2
 566 251 l 2
 566 92 505 0 336 0 c 0
 212 0 104 47 104 177 c 0xeb80
 104 247 136 297 161 347 c 1
 159 347 156 347 154 347 c 0
 97 347 49 393 49 454 c 0
 49 517 93 558 166 558 c 0
 249 558 289 503 289 413 c 1xf780
 278 332 210 269 210 180 c 0
 210 100 259 77 341 77 c 0
 414 77 458 116 458 216 c 2
 458 352 l 1
 447 349 436 347 423 347 c 0
 357 347 314 392 314 450 c 0
 314 508 347 557 434 557 c 0
 484 557 521 537 543 504 c 1
 579 532 622 557 682 557 c 0xeb80
458 433 m 1
 458 437 l 2
 458 463 449 486 423 486 c 0
 402 486 391 473 391 452 c 0
 391 433 404 422 423 422 c 0
 435 422 447 426 458 433 c 1
189 429 m 1
 190 435 190 441 190 447 c 0
 190 477 174 486 158 486 c 0
 141 486 125 475 125 454 c 0xf780
 125 434 140 422 158 422 c 0
 167 422 178 425 189 429 c 1
EndSplineSet
EndChar

StartChar: uni0EAD
Encoding: 121 3757 25
Width: 595
GlyphClass: 2
Flags: W
HStem: 0 75<201.386 396.73> 193 71<121.262 182.134> 299 79<144.547 417.965> 481 77<146.849 403.913>
VStem: 29 87<134.906 189.573> 35 94<397.494 461.608> 185 76<130.118 191.378> 454 110<127.403 333>
AnchorPoint: "ldia" 432 0 basechar 0
AnchorPoint: "cbelow" 452 0 basechar 0
AnchorPoint: "udia" 300 600 basechar 0
AnchorPoint: "cabove" 340 600 basechar 0
LayerCount: 2
Fore
SplineSet
287 75 m 0xfb
 400 75 454 111 454 213 c 2
 454 333 l 1
 413 314 354 299 278 299 c 0
 170 299 35 323 35 426 c 0xf7
 35 528 147 558 293 558 c 0
 423 558 564 526 564 349 c 2
 564 215 l 2
 564 75 466 0 291 0 c 0
 148 0 29 35 29 145 c 0
 29 213 76 264 152 264 c 0
 226 264 261 223 261 169 c 0
 261 126 235 95 200 80 c 1
 225 76 255 75 287 75 c 0xfb
116 138 m 1xfb
 128 133 141 128 153 128 c 0
 168 128 185 137 185 160 c 0
 185 176 175 193 155 193 c 0
 134 193 116 182 116 142 c 0
 116 140 116 139 116 138 c 1xfb
444 414 m 1
 426 461 382 481 293 481 c 0
 200 481 129 475 129 428 c 0xf7
 129 391 180 378 275 378 c 0
 366 378 420 395 444 414 c 1
EndSplineSet
EndChar

StartChar: uni0EAE
Encoding: 122 3758 26
Width: 590
GlyphClass: 2
Flags: W
HStem: 0 75<207.963 419.713> 193 71<126.929 187.614> 440 80<271.842 456.424> 479 79<147.962 270.382>
VStem: 35 87<133.909 188.712> 38 105<409.469 474.135> 191 76<129.891 190.78> 452 110<102.583 207.997>
AnchorPoint: "ldia" 440 0 basechar 0
AnchorPoint: "cbelow" 460 0 basechar 0
AnchorPoint: "udia" 300 600 basechar 0
AnchorPoint: "cabove" 340 600 basechar 0
LayerCount: 2
Fore
SplineSet
38 436 m 0xe7
 38 513 104 558 176 558 c 0xd7
 261 558 303 520 367 520 c 0
 422 520 451 536 485 559 c 0
 492 564 497 569 505 569 c 0
 516 569 543 532 543 520 c 0
 543 513 539 507 531 498 c 0
 503 467 437 440 364 440 c 0xe7
 293 440 228 479 184 479 c 0xd7
 151 479 143 455 143 440 c 0xe7
 143 400 225 384 354 344 c 0
 474 307 562 259 562 162 c 0
 562 54 484 0 297 0 c 0
 157 0 35 34 35 144 c 0xeb
 35 212 82 264 157 264 c 0
 232 264 267 223 267 171 c 0
 267 125 241 94 206 80 c 1
 230 77 259 75 292 75 c 0
 401 75 452 91 452 158 c 0
 452 216 398 236 297 268 c 1
 180 308 38 335 38 436 c 0xe7
122 138 m 1xcb
 135 132 149 128 160 128 c 0
 175 128 191 137 191 159 c 0
 191 173 183 193 160 193 c 0
 140 193 122 183 122 142 c 0
 122 141 122 139 122 138 c 1xcb
EndSplineSet
EndChar

StartChar: uni0EAF
Encoding: 123 3759 27
Width: 626
GlyphClass: 2
Flags: W
HStem: 259 76<170.1 312.688> 348 72<169.531 209.37> 484 74<144.466 209.367>
VStem: 41 99<423.11 479.833> 211 84<421.524 482.361> 463 113<516 548.897>
DStem2: 170 -132 259 -173 0.420825 0.907142<-38.9695 504.134>
LayerCount: 2
Fore
SplineSet
219 -218 m 0
 197 -215 154 -196 154 -175 c 1
 155 -168 l 1
 170 -132 l 1
 385 324 l 1
 385 324 337 259 228 259 c 0
 107 259 41 324 41 418 c 0
 41 491 75 558 172 558 c 0
 259 558 295 506 295 453 c 0
 295 396 251 348 190 348 c 0
 182 348 176 347 169 348 c 1
 183 339 204 335 234 335 c 0
 326 335 407 420 463 522 c 0
 472 538 480 550 489 560 c 0
 494 566 501 568 509 567 c 1
 518 567 528 563 537 558 c 0
 555 549 577 539 577 523 c 1
 576 516 l 1
 561 478 l 1
 259 -173 l 1
 237 -209 l 2
 233 -216 227 -218 219 -218 c 0
140 434 m 1
 152 426 165 420 181 420 c 0
 202 420 211 436 211 452 c 0
 211 470 200 484 177 484 c 0
 151 484 139 467 139 440 c 0
 139 439 139 437 140 436 c 2
 140 434 l 1
EndSplineSet
EndChar

StartChar: uni0EB0
Encoding: 124 3760 28
Width: 579
GlyphClass: 2
Flags: W
HStem: 22 89<233.959 386.141> 186 64<122.29 175.402> 315 89<233.959 386.141> 479 64<122.29 175.402>
VStem: 48 73<132.983 185.032 425.495 477.732> 176 70<123.391 184.803 416.391 477.803> 448 82<169.545 250.327 462.174 543.327>
LayerCount: 2
Fore
SplineSet
530 232 m 0
 530 116 455 22 264 22 c 0
 132 22 48 76 48 156 c 0
 48 222 97 250 150 250 c 0
 206 250 246 222 246 167 c 0
 246 144 240 126 233 112 c 1
 242 112 252 111 262 111 c 0
 376 111 424 133 443 208 c 0
 445 216 448 224 448 234 c 0
 448 249 465 252 485 252 c 0
 509 252 530 249 530 232 c 0
530 525 m 0
 530 408 455 315 264 315 c 0
 132 315 48 368 48 448 c 0
 48 515 97 543 150 543 c 0
 206 543 246 515 246 460 c 0
 246 437 240 419 233 405 c 1
 242 405 252 404 262 404 c 0
 376 404 424 426 443 501 c 0
 445 508 447 517 448 526 c 0
 450 542 465 545 485 545 c 0
 509 545 530 542 530 525 c 0
164 123 m 1
 171 134 176 146 176 160 c 0
 176 180 166 186 146 186 c 0
 126 186 121 175 121 157 c 0
 121 144 135 132 164 123 c 1
164 416 m 1
 171 427 176 439 176 453 c 0
 176 473 166 479 146 479 c 0
 126 479 121 468 121 450 c 0
 121 437 135 425 164 416 c 1
EndSplineSet
EndChar

StartChar: uni0EB1
Encoding: 125 3761 29
Width: 0
GlyphClass: 4
Flags: W
HStem: 624 89<-335.137 -181.531> 789 64<-451.251 -397.962>
VStem: -525 73<735.359 788.579> -397 70<725.355 787.801> -131 88<759.844 851.189>
AnchorPoint: "tone" -250 880 basemark 0
AnchorPoint: "udia" -300 600 mark 0
LayerCount: 2
Fore
SplineSet
-43 834 m 0
 -43 736 -96 624 -303 624 c 0
 -445 624 -525 680 -525 758 c 0
 -525 816 -484 853 -424 853 c 0
 -367 853 -327 825 -327 770 c 0
 -327 748 -332 729 -339 714 c 1
 -328 714 -316 713 -303 713 c 0
 -180 713 -138 748 -131 812 c 1
 -125 843 -119 854 -90 854 c 0
 -60 854 -43 850 -43 834 c 0
-409 725 m 1
 -402 736 -397 749 -397 762 c 0
 -397 783 -409 789 -426 789 c 0
 -444 789 -452 781 -452 763 c 0
 -452 747 -437 734 -409 725 c 1
EndSplineSet
EndChar

StartChar: uni0EB2
Encoding: 126 3762 30
Width: 412
GlyphClass: 2
Flags: W
HStem: 0 21G<278.5 305.5> 335 72<41.4635 102.368>
VStem: -39 78<408.871 469.893> 104 72<409.184 477.599> 235 107<3.02744 457.351>
LayerCount: 2
Fore
SplineSet
235 32 m 2
 235 388 l 2
 235 441 222 472 164 480 c 1
 171 468 176 453 176 435 c 0
 176 363 121 335 72 335 c 0
 5 335 -39 377 -39 440 c 0
 -39 522 41 558 151 558 c 0
 269 558 342 500 342 387 c 2
 342 32 l 2
 342 3 320 0 291 0 c 0
 266 0 235 0 235 32 c 2
83 478 m 1
 51 472 39 458 39 442 c 0
 39 419 50 407 71 407 c 0
 95 407 104 423 104 439 c 0
 104 453 93 467 83 478 c 1
EndSplineSet
EndChar

StartChar: uni0EB4
Encoding: 128 3764 32
Width: 0
GlyphClass: 4
Flags: W
HStem: 617 71<-435.734 -352.994 -247.731 -163.935> 786 71<-423.369 -175.631>
VStem: -533 91<697.249 764.739> -158 91<696.272 766.777>
AnchorPoint: "tone" -300 880 basemark 0
AnchorPoint: "udia" -300 600 mark 0
LayerCount: 2
Fore
SplineSet
-299 786 m 0
 -366 786 -442 779 -442 732 c 0
 -442 691 -401 688 -372 688 c 0
 -360 688 -352 677 -352 653 c 0
 -352 625 -359 617 -372 617 c 0
 -447 617 -533 645 -533 732 c 0
 -533 835 -401 857 -299 857 c 0
 -197 857 -67 833 -67 732 c 0
 -67 649 -152 617 -227 617 c 0
 -238 617 -249 625 -249 653 c 0
 -249 676 -242 688 -227 688 c 0
 -198 688 -158 691 -158 732 c 0
 -158 778 -222 786 -299 786 c 0
EndSplineSet
EndChar

StartChar: uni0EB5
Encoding: 129 3765 33
Width: 0
GlyphClass: 4
Flags: W
HStem: 617 71<-428.509 -345.976 -240.875 -156.734 -83 -1.125> 786 71<-415.551 -169.051>
VStem: -526 91<697.32 766.259> -242 242<617 687.99> -151 91<695.687 766.682>
AnchorPoint: "tone" -300 880 basemark 0
AnchorPoint: "udia" -300 600 mark 0
LayerCount: 2
Fore
SplineSet
-18 617 m 2xf0
 -224 617 l 2
 -235 617 -242 632 -242 651 c 0xf0
 -242 674 -236 688 -224 688 c 0
 -189 688 -151 691 -151 732 c 0
 -151 778 -214 786 -292 786 c 0
 -365 786 -435 778 -435 732 c 0
 -435 691 -391 688 -362 688 c 0
 -350 688 -345 673 -345 651 c 0
 -345 629 -351 617 -362 617 c 0
 -469 617 -526 662 -526 732 c 0
 -526 821 -424 857 -292 857 c 0
 -171 857 -60 823 -60 736 c 0xe8
 -60 709 -78 691 -83 688 c 1
 -18 688 l 2
 -6 688 0 674 0 651 c 0
 0 628 -7 617 -18 617 c 2xf0
EndSplineSet
EndChar

StartChar: uni0EB6
Encoding: 130 3766 34
Width: 0
GlyphClass: 4
Flags: W
HStem: 617 71<-433.928 -353.04 -247.812 -165.185> 681 75<-340.883 -259.117> 786 71<-422.673 -176.815>
VStem: -533 91<695.473 766.259> -346 92<687.539 750.146> -158 91<695.591 767.597>
CounterMasks: 1 1c
AnchorPoint: "tone" -300 880 basemark 0
AnchorPoint: "udia" -300 600 mark 0
LayerCount: 2
Fore
SplineSet
-300 756 m 0x7c
 -278 756 -254 741 -254 720 c 0
 -254 698 -277 681 -300 681 c 0
 -323 681 -346 698 -346 720 c 0
 -346 741 -322 756 -300 756 c 0x7c
-299 786 m 0
 -371 786 -442 778 -442 732 c 0
 -442 691 -403 688 -374 688 c 0
 -358 688 -352 675 -352 652 c 0
 -352 624 -359 617 -374 617 c 0
 -449 617 -533 646 -533 732 c 0
 -533 821 -432 857 -299 857 c 0
 -181 857 -67 826 -67 732 c 0
 -67 662 -131 617 -227 617 c 0
 -238 617 -249 625 -249 652 c 0
 -249 675 -243 688 -227 688 c 0xbc
 -198 688 -158 691 -158 732 c 0
 -158 778 -222 786 -299 786 c 0
EndSplineSet
EndChar

StartChar: uni0EB7
Encoding: 131 3767 35
Width: 0
GlyphClass: 4
Flags: W
HStem: 617 71<-426.432 -346.431 -240.702 -156.922 -83 -1.0287> 681 75<-334.054 -251.946> 786 71<-413.964 -168.225>
VStem: -526 91<696.784 765.934> -339 92<687.03 750.146> -242 242<617 687.985> -151 91<695.525 767.292>
AnchorPoint: "tone" -300 880 basemark 0
AnchorPoint: "udia" -300 600 mark 0
LayerCount: 2
Fore
SplineSet
-293 756 m 0x78
 -270 756 -247 741 -247 720 c 0
 -247 698 -269 681 -293 681 c 0
 -317 681 -339 698 -339 720 c 0
 -339 741 -316 756 -293 756 c 0x78
-222 617 m 2xbc
 -237 617 -242 636 -242 652 c 0xbc
 -242 668 -239 688 -224 688 c 0
 -185 688 -151 693 -151 733 c 0
 -151 774 -204 786 -293 786 c 0
 -382 786 -435 770 -435 733 c 0
 -435 708 -420 695 -396 692 c 1
 -365 686 -345 689 -345 652 c 0
 -345 636 -348 617 -362 617 c 0
 -463 617 -526 657 -526 733 c 0
 -526 817 -430 857 -293 857 c 0
 -157 857 -60 816 -60 735 c 0xba
 -60 709 -78 691 -83 688 c 1
 -18 688 l 2
 -3 688 0 668 0 652 c 0
 0 636 -3 617 -17 617 c 2
 -222 617 l 2xbc
EndSplineSet
EndChar

StartChar: uni0EB8
Encoding: 132 3768 36
Width: 0
GlyphClass: 4
Flags: W
HStem: -230 58<-208.625 -193> -115 56<-208.62 -157.821>
VStem: -276 66<-171.22 -115.491> -155 75<-169.695 -115.679>
AnchorPoint: "lstack" -160 55 mark 0
AnchorPoint: "ldia" -160 0 mark 0
LayerCount: 2
Fore
SplineSet
-179 -59 m 0
 -114 -59 -80 -99 -80 -165 c 1
 -80 -237 -138 -298 -204 -340 c 1
 -213 -347 -220 -346 -229 -339 c 1
 -241 -339 -255 -320 -255 -309 c 1
 -262 -299 -263 -292 -254 -284 c 1
 -227 -266 -207 -247 -193 -230 c 1
 -235 -230 -276 -201 -276 -144 c 0
 -276 -94 -239 -59 -179 -59 c 0
-158 -168 m 1
 -156 -161 -155 -156 -155 -153 c 0
 -155 -124 -169 -115 -182 -115 c 0
 -200 -115 -210 -124 -210 -144 c 0
 -210 -162 -201 -172 -182 -172 c 0
 -174 -172 -166 -171 -158 -168 c 1
EndSplineSet
EndChar

StartChar: uni0EB9
Encoding: 133 3769 37
Width: 0
GlyphClass: 4
Flags: W
HStem: -340 58<-201.097 -128.75> -191 47<-278.578 -255.045> -108 53<-279.668 -241.698>
VStem: -336 56<-143.504 -108.078> -273 70<-279.342 -189.186> -241 64<-143.999 -109.152> -125 74<-278.557 -58.6712>
AnchorPoint: "lstack" -240 100 mark 0
AnchorPoint: "ldia" -160 0 mark 0
LayerCount: 2
Fore
SplineSet
-51 -77 m 2xfa
 -51 -198 l 2
 -51 -320 -94 -340 -167 -340 c 0
 -223 -340 -273 -320 -273 -260 c 0xfa
 -273 -242 -264 -216 -255 -191 c 1
 -258 -191 -261 -191 -264 -191 c 0
 -304 -191 -336 -166 -336 -125 c 0
 -336 -83 -311 -55 -259 -55 c 0
 -211 -55 -184 -83 -178 -117 c 0
 -177 -125 -177 -133 -177 -141 c 0xf6
 -177 -186 -203 -230 -203 -252 c 0
 -203 -274 -189 -282 -165 -282 c 0
 -126 -282 -125 -264 -125 -208 c 2
 -125 -77 l 2
 -125 -58 -102 -58 -87 -58 c 0
 -69 -58 -51 -58 -51 -77 c 2xfa
-241 -141 m 1xf6
 -241 -140 -241 -138 -241 -137 c 0
 -241 -112 -253 -108 -262 -108 c 0
 -272 -108 -280 -114 -280 -126 c 0
 -280 -137 -274 -144 -260 -144 c 0
 -254 -144 -247 -143 -241 -141 c 1xf6
EndSplineSet
EndChar

StartChar: uni0EBB
Encoding: 134 3771 38
Width: 0
GlyphClass: 4
Flags: W
HStem: 621 65<-449.683 -396.107> 763 85<-338.041 -186.281>
VStem: -524 73<686.971 739.074> -395 69<686.827 749.331> -123 81<622.378 702.642>
AnchorPoint: "tone" -295 880 basemark 0
AnchorPoint: "udia" -300 600 mark 0
LayerCount: 2
Fore
SplineSet
-42 640 m 0
 -42 623 -63 621 -87 621 c 0
 -107 621 -121 623 -123 638 c 0
 -125 647 -126 655 -128 663 c 0
 -146 739 -195 763 -310 763 c 0
 -321 763 -331 764 -340 763 c 1
 -332 748 -326 728 -326 704 c 0
 -326 650 -366 621 -422 621 c 0
 -475 621 -524 650 -524 716 c 0
 -524 796 -440 848 -308 848 c 0
 -118 848 -42 757 -42 640 c 0
-408 750 m 1
 -437 740 -451 727 -451 715 c 0
 -451 697 -445 686 -425 686 c 0
 -406 686 -395 692 -395 712 c 0
 -395 726 -400 739 -408 750 c 1
EndSplineSet
EndChar

StartChar: uni0EBC
Encoding: 135 3772 39
Width: 0
GlyphClass: 4
Flags: W
HStem: -255 65<-466.509 -411.639> -240 88<-229.545 -168.034> -130 84<-463.256 -412.343>
VStem: -540 73<-189.168 -133.926> -411 69<-188.965 -160.453> -153 87<-142.152 -40.2778>
AnchorPoint: "lstack" -250 -170 basemark 0
AnchorPoint: "cbelow" -160 0 mark 0
LayerCount: 2
Fore
SplineSet
-414 -46 m 0xbc
 -307 -46 -222 -152 -190 -152 c 0
 -173 -152 -168 -136 -161 -109 c 0
 -159 -101 -154 -79 -153 -77 c 0
 -147 -51 -144 -37 -120 -37 c 0
 -86 -37 -66 -45 -66 -58 c 0
 -66 -127 -86 -240 -182 -240 c 0x7c
 -252 -240 -297 -193 -342 -160 c 1
 -342 -163 -342 -167 -342 -170 c 0
 -342 -232 -389 -255 -440 -255 c 0
 -486 -255 -540 -229 -540 -159 c 0
 -540 -90 -491 -46 -414 -46 c 0xbc
-422 -130 m 1
 -445 -130 -467 -138 -467 -163 c 0
 -467 -181 -459 -190 -439 -190 c 0xbc
 -418 -190 -411 -183 -411 -162 c 0
 -411 -151 -416 -140 -422 -130 c 1
EndSplineSet
EndChar

StartChar: uni0EBD
Encoding: 136 3773 40
Width: 499
GlyphClass: 2
Flags: W
HStem: -207 80<229 311.452> -55 73<105.015 169.592> 439 98<320.594 442.5> 520 88<121.064 216.104>
VStem: 28 76<-113.148 -56.5763> 29 91<465.633 518.668> 171 73<-121.732 -56.2811> 347 107<-92.2176 275.037> 396 104<537.244 615.861>
DStem2: 347 378 115 376 0.92383 -0.382803<-253.058 33.5022> 227 587 222 496 0.943858 -0.33035<-52.8082 151.972>
LayerCount: 2
Fore
SplineSet
500 582 m 0xe680
 500 476 470 439 415 439 c 0xe680
 374 439 321 461 308 465 c 2
 222 496 l 2
 216 498 159 520 147 520 c 0
 132 520 120 511 120 492 c 0xd680
 120 476 129 469 166 453 c 2
 347 378 l 2
 440 339 454 291 454 195 c 2
 454 0 l 2
 454 -120 401 -207 236 -207 c 0
 94 -207 28 -162 28 -86 c 0xdb
 28 -11 85 18 137 18 c 0
 196 18 244 -17 244 -78 c 0
 244 -98 238 -114 229 -127 c 1
 324 -127 347 -88 347 -4 c 2
 347 184 l 2
 347 260 337 277 283 302 c 1
 115 376 l 1
 57 403 29 428 29 495 c 0
 29 568 78 608 142 608 c 0xd7
 170 608 224 588 227 587 c 2
 327 552 l 2
 329 551 361 537 371 537 c 0
 396 537 396 559 396 586 c 0
 396 616 419 620 448 620 c 0
 486 620 500 608 500 582 c 0xe680
153 -122 m 1
 162 -111 171 -97 171 -84 c 0
 171 -63 158 -55 137 -55 c 0
 111 -55 104 -68 104 -86 c 0xca
 104 -102 119 -115 153 -122 c 1
EndSplineSet
EndChar

StartChar: uni0EC0
Encoding: 137 3776 41
Width: 362
GlyphClass: 2
Flags: W
HStem: 0 73<228.582 285.968> 136 73<228.569 290.291> 465 92<170.529 281.462> 465 79<198.507 290.068>
VStem: 49 106<105.706 450.113> 163 64<105.346 133.448> 291 75<78.0215 135.173>
LayerCount: 2
Fore
SplineSet
271 465 m 5xee
 237 465 l 5
 161 465 155 442 155 346 c 6
 155 165 l 6
 155 139 156 120 163 105 c 5
 163 109 163 112 163 116 c 4
 163 150 185 209 262 209 c 4
 326 209 366 164 366 107 c 4
 366 43 340 0 220 0 c 4
 102 0 49 73 49 176 c 6
 49 313 l 6
 49 483 77 557 197 557 c 4xee
 229 557 271 549 282 544 c 5xde
 291 542 295 533 295 521 c 4
 295 501 289 465 271 465 c 5xee
237 73 m 5
 279 73 291 88 291 106 c 4
 291 127 281 136 259 136 c 4
 236 136 227 125 227 109 c 4
 227 96 231 83 237 73 c 5
EndSplineSet
EndChar

StartChar: uni0EC1
Encoding: 138 3777 42
Width: 636
GlyphClass: 2
Flags: W
HStem: 0 73<203.752 263.315 572.752 632.315> 136 73<202.937 264.356 571.937 633.356> 465 93<146.777 265.812 515.777 634.812> 465 79<169.137 265.812 538.137 634.812>
VStem: 24 107<106.754 450.422> 139 63<106.398 134.639> 266 76<78.5243 134.804> 393 107<106.754 450.422> 508 63<106.398 134.639> 635 76<78.5243 134.804>
LayerCount: 2
Fore
SplineSet
247 465 m 1xefc0
 215 465 l 1
 148 465 131 453 131 361 c 2
 131 173 l 2
 131 144 132 122 139 106 c 1
 139 109 139 112 139 116 c 0
 139 167 174 209 235 209 c 0
 307 209 342 160 342 104 c 0
 342 22 285 0 197 0 c 0
 68 0 24 84 24 178 c 2
 24 366 l 2
 24 495 74 558 168 558 c 0xefc0
 192 558 233 553 257 544 c 0xdfc0
 265 542 270 536 270 521 c 0
 270 488 261 465 247 465 c 1xefc0
616 465 m 1
 584 465 l 1
 517 465 500 453 500 361 c 2
 500 173 l 2
 500 144 501 122 508 106 c 1
 508 109 508 112 508 116 c 0
 508 167 543 209 604 209 c 0
 676 209 711 160 711 104 c 0
 711 22 654 0 566 0 c 0
 437 0 393 84 393 178 c 2
 393 366 l 2
 393 495 443 558 537 558 c 0xefc0
 561 558 602 553 626 544 c 0xdfc0
 634 542 639 536 639 521 c 0
 639 488 630 465 616 465 c 1
213 73 m 1
 249 73 266 86 266 108 c 0
 266 126 256 136 234 136 c 0
 217 136 202 129 202 109 c 0
 202 95 207 83 213 73 c 1
582 73 m 1
 618 73 635 86 635 108 c 0
 635 126 625 136 603 136 c 0
 586 136 571 129 571 109 c 0
 571 95 576 83 582 73 c 1
EndSplineSet
EndChar

StartChar: uni0EC2
Encoding: 139 3778 43
Width: 515
GlyphClass: 2
Flags: W
HStem: 0 73<342.582 399.968> 136 73<342.569 404.291>
VStem: 163 106<105.706 513.553> 277 64<105.346 133.448> 405 75<78.0215 135.173>
DStem2: 190 732 121 670 0.741834 -0.670584<-74.4885 124.641>
LayerCount: 2
Back
SplineSet
351 73 m 1
 393 73 405 88 405 106 c 0
 405 127 395 136 373 136 c 0
 350 136 341 125 341 109 c 0
 341 96 345 83 351 73 c 1
163 176 m 1
 163 73 216 0 334 0 c 0
 454 0 480 43 480 107 c 0
 480 164 440 209 376 209 c 0
 299 209 277 150 277 116 c 0
 277 112 277 109 277 105 c 1
 270 120 269 139 269 165 c 2
 269 446 l 2
 269 515 329 562 367 572 c 1
 190 732 l 2
 170 751 145 773 142 791 c 1
 142 799 l 1
 147 822 170 833 190 816 c 1
 240 779 l 1
 308 719 347 681 366 669 c 1
 381 658 401 645 423 651 c 1
 450 703 l 1
 446 725 l 1
 443 725 439 727 436 729 c 0
 395 749 296 845 228 892 c 1
 207 904 183 909 149 909 c 0
 107 909 63 875 53 812 c 1
 38 742 81 706 121 670 c 1
 153 639 184 606 217 576 c 1
 200 560 179 516 168 457 c 1
 163 380 l 1
 163 176 l 1
385 465 m 1xee
 351 465 l 1xde
 275 465 269 442 269 346 c 2
 269 165 l 6
 269 139 270 120 277 105 c 5
 277 109 277 112 277 116 c 4
 277 150 299 209 376 209 c 4
 440 209 480 164 480 107 c 4
 480 43 454 0 334 0 c 4
 216 0 163 73 163 176 c 6
 163 313 l 2
 163 483 191 557 311 557 c 0xee
 343 557 385 549 396 544 c 1xde
 405 542 409 533 409 521 c 0
 409 501 403 465 385 465 c 1xee
351 73 m 5
 393 73 405 88 405 106 c 4
 405 127 395 136 373 136 c 4
 350 136 341 125 341 109 c 4
 341 96 345 83 351 73 c 5
EndSplineSet
Fore
SplineSet
163 380 m 2
 163 501 200 560 217 576 c 1
 184 606 153 639 121 670 c 1
 81 706 38 742 53 812 c 1
 63 875 107 909 149 909 c 0
 183 909 207 904 228 892 c 1
 296 845 395 749 436 729 c 0
 439 727 443 725 446 725 c 1
 450 703 l 1
 423 651 l 1
 401 645 381 658 366 669 c 1
 347 681 308 719 240 779 c 1
 190 816 l 1
 170 833 147 822 142 799 c 1
 142 791 l 1
 145 773 170 751 190 732 c 2
 367 572 l 1
 329 562 269 515 269 446 c 2
 269 165 l 2
 269 139 270 120 277 105 c 1
 277 116 l 2
 277 150 299 209 376 209 c 0
 440 209 480 164 480 107 c 0
 480 43 454 0 334 0 c 0
 216 0 163 73 163 176 c 2
 163 380 l 2
351 73 m 1
 393 73 405 88 405 106 c 0
 405 127 395 136 373 136 c 0
 350 136 341 125 341 109 c 0
 341 96 345 83 351 73 c 1
EndSplineSet
EndChar

StartChar: uni0EC3
Encoding: 140 3779 44
Width: 500
GlyphClass: 2
Flags: W
HStem: 0 74<338.651 397.031> 136 73<337.685 399.707> 566 72<136.667 233.698> 744 79<145.303 356.861>
VStem: 39 89<646.318 725.198> 159 107<107.707 415.5> 274 63<107.179 133.775> 375 100<624.614 723.682> 401 76<78.7966 134.659>
LayerCount: 2
Fore
SplineSet
175 566 m 0xff
 107 566 39 607 39 678 c 0
 39 761 107 823 245 823 c 0
 411 823 475 767 475 681 c 0xff
 475 493 266 509 266 340 c 2
 266 170 l 2
 266 142 268 122 274 107 c 1
 274 110 274 113 274 116 c 0
 274 183 325 209 370 209 c 0
 444 209 477 157 477 101 c 0xfe80
 477 29 431 0 325 0 c 0
 241 0 159 48 159 176 c 2
 159 345 l 2
 159 557 375 564 375 678 c 0
 375 737 321 744 249 744 c 0
 182 744 128 733 128 685 c 0
 128 669 141 638 175 638 c 0
 199 638 221 637 249 678 c 0
 256 689 265 693 274 692 c 1
 290 692 315 667 318 653 c 0
 320 645 318 637 311 628 c 0
 275 579 237 566 175 566 c 0xff
349 74 m 1
 380 74 401 85 401 108 c 0xfe80
 401 123 395 136 369 136 c 0
 347 136 337 128 337 109 c 0
 337 96 342 84 349 74 c 1
EndSplineSet
EndChar

StartChar: uni0EC4
Encoding: 141 3780 45
Width: 519
GlyphClass: 2
Flags: W
HStem: 0 74<272.651 332.001> 136 73<272.316 334.178> 599 91<117.004 213.625> 653 80<251.191 344.517>
VStem: 49 95<694.186 810.754> 94 106<108.66 428.752> 208 63<108.391 134.079> 335 76<80.0297 135.084> 345 90<596.531 652.121>
LayerCount: 2
Fore
SplineSet
200 333 m 2xd680
 200 167 l 2
 200 141 202 122 208 108 c 1
 208 110 208 112 208 114 c 0
 208 179 254 209 302 209 c 0
 354 209 411 182 411 101 c 0xd7
 411 34 371 0 264 0 c 0
 151 0 94 67 94 180 c 2
 94 331 l 2
 94 441 103 480 190 523 c 1
 236 547 345 591 345 624 c 0
 345 644 337 653 318 653 c 0xd680
 300 653 253 633 228 622 c 0
 197 608 175 599 145 599 c 0
 90 599 49 630 49 755 c 2
 49 786 l 2xea80
 49 809 70 813 94 813 c 0xe6
 119 813 144 812 144 786 c 2
 144 713 l 2
 144 696 147 690 158 690 c 0xea
 184 690 231 731 286 731 c 0
 296 731 329 737 354 733 c 0
 395 725 435 690 435 622 c 0
 435 527 349 504 272 463 c 1
 215 435 200 423 200 333 c 2xd680
283 74 m 1
 304 74 335 82 335 108 c 0
 335 125 326 136 303 136 c 0
 281 136 271 128 271 109 c 0
 271 96 276 84 283 74 c 1
EndSplineSet
EndChar

StartChar: uni0EC6
Encoding: 142 3782 46
Width: 661
GlyphClass: 2
Flags: W
HStem: -205 85<270.125 456.679> 221 72<159.992 225.606> 357 73<155.416 225.727> 482 76<161.191 241.125 423.686 497.985>
VStem: 51 103<296.938 355.022 423 474.406> 227 78<294.803 355.273> 510 102<-66.3571 471.215>
LayerCount: 2
Fore
SplineSet
202 -51 m 0
 251 -89 286 -120 362 -120 c 0
 487 -120 510 -58 510 51 c 2
 510 351 l 2
 510 472 492 482 464 482 c 0
 421 482 400 409 334 409 c 0
 264 409 253 482 188 482 c 0
 169 482 155 465 155 423 c 1
 168 427 181 430 196 430 c 0
 263 430 305 387 305 324 c 0
 305 265 259 221 183 221 c 0
 102 221 51 265 51 357 c 1
 51 471 100 558 190 558 c 0
 279 558 334 488 334 488 c 1
 334 488 388 558 465 558 c 0
 557 558 612 519 612 329 c 2
 612 78 l 2
 612 -128 529 -205 366 -205 c 0
 239 -205 186 -156 138 -109 c 0
 133 -103 131 -98 131 -93 c 0
 131 -77 166 -42 185 -42 c 0
 190 -42 195 -46 202 -51 c 0
154 348 m 1
 154 346 l 2
 154 312 165 293 193 293 c 0
 215 293 227 306 227 325 c 0
 227 342 219 357 195 357 c 0
 181 357 167 354 154 348 c 1
EndSplineSet
EndChar

StartChar: uni0EC8
Encoding: 143 3784 47
Width: 0
GlyphClass: 4
Flags: W
HStem: 601 228<-139.783 -52.2174>
VStem: -140 88<602.47 827.391>
AnchorPoint: "tone" -100 880 basemark 0
AnchorPoint: "tone" -100 570 mark 0
AnchorPoint: "udia" -100 580 mark 0
LayerCount: 2
Fore
SplineSet
-52 802 m 2
 -52 627 l 2
 -52 610 -57 601 -96 601 c 0
 -135 601 -140 610 -140 627 c 2
 -140 802 l 2
 -140 819 -135 829 -96 829 c 0
 -57 829 -52 819 -52 802 c 2
EndSplineSet
EndChar

StartChar: uni0EC9
Encoding: 144 3785 48
Width: 0
GlyphClass: 4
Flags: W
HStem: 627 68<-358 -242.201> 724 47<-450.15 -390.266> 825 51<-450.536 -384.807>
VStem: -508 57<772.477 823.511> -382 66<772.846 821.379> -217 88<721.029 854.672>
AnchorPoint: "tone" -310 880 basemark 0
AnchorPoint: "tone" -310 600 mark 0
AnchorPoint: "udia" -300 600 mark 0
LayerCount: 2
Fore
SplineSet
-217 825 m 0
 -217 844 -210 857 -172 857 c 0
 -137 857 -129 844 -129 825 c 0
 -129 694 -164 627 -337 627 c 2
 -482 627 l 2
 -508 627 -516 634 -516 667 c 0
 -516 704 -419 680 -390 733 c 1
 -401 728 -414 724 -426 724 c 0
 -481 724 -508 755 -508 797 c 0
 -508 837 -485 876 -421 876 c 0
 -351 876 -316 829 -316 772 c 0
 -316 723 -356 695 -358 695 c 2
 -335 695 l 2
 -229 695 -217 721 -217 825 c 0
-382 781 m 1
 -382 817 -394 825 -421 825 c 0
 -443 825 -451 813 -451 798 c 0
 -451 783 -442 771 -418 771 c 0
 -405 771 -392 776 -382 781 c 1
EndSplineSet
EndChar

StartChar: uni0ECA
Encoding: 145 3786 49
Width: 0
GlyphClass: 4
Flags: W
HStem: 727 68<-354.931 -296.149 -226.043 -166.658>
VStem: -430 74<665.782 725.745> -166 135<690 796.5> -91 60<739.184 809.051>
AnchorPoint: "tone" -230 840 basemark 0
AnchorPoint: "tone" -230 560 mark 0
AnchorPoint: "udia" -300 580 mark 0
LayerCount: 2
Fore
SplineSet
-261 741 m 1xe0
 -261 741 -243 795 -177 795 c 0
 -133 795 -109 773 -109 737 c 1
 -99 764 -95 796 -91 802 c 1xd0
 -89 808 -79 810 -66 810 c 0
 -46 810 -31 805 -31 788 c 0
 -31 693 -136 594 -193 594 c 0
 -216 594 -241 630 -218 645 c 0
 -186 668 -166 679 -166 701 c 0
 -166 716 -176 727 -192 727 c 0
 -209 727 -223 713 -231 697 c 0
 -239 681 -251 679 -261 679 c 0
 -267 679 -280 677 -291 697 c 0
 -300 713 -312 727 -331 727 c 0
 -347 727 -356 716 -356 701 c 0
 -356 676 -325 659 -305 644 c 1
 -282 629 -307 594 -331 594 c 0
 -379 594 -430 657 -430 708 c 0
 -430 761 -399 795 -341 795 c 0
 -274 795 -261 741 -261 741 c 1xe0
EndSplineSet
EndChar

StartChar: uni0ECB
Encoding: 146 3787 50
Width: 0
GlyphClass: 4
Flags: W
HStem: 683 68<-269.204 -189 -120 -39.3526>
VStem: -189 69<602.317 683 751 832.246>
AnchorPoint: "tone" -160 870 basemark 0
AnchorPoint: "tone" -160 560 mark 0
AnchorPoint: "udia" -200 580 mark 0
LayerCount: 2
Fore
SplineSet
-120 683 m 1
 -120 626 l 2
 -120 603 -145 601 -155 601 c 0
 -164 601 -189 603 -189 626 c 2
 -189 683 l 1
 -243 683 l 2
 -268 683 -271 709 -271 717 c 0
 -271 724 -269 751 -243 751 c 2
 -189 751 l 1
 -189 808 l 2
 -189 831 -164 834 -155 834 c 0
 -148 834 -120 832 -120 808 c 2
 -120 751 l 1
 -64 751 l 2
 -40 751 -38 727 -38 717 c 0
 -38 708 -40 683 -64 683 c 2
 -120 683 l 1
EndSplineSet
EndChar

StartChar: uni0ECC
Encoding: 147 3788 51
Width: 0
GlyphClass: 4
Flags: W
HStem: 615 55<-248.02 -195.116> 714 66<-138 -107.363> 726 61<-247.371 -194.629>
VStem: -311 62<670.583 724.61> -194 57<670.787 714>
AnchorPoint: "tone" -200 870 basemark 0
AnchorPoint: "tone" -200 590 mark 0
AnchorPoint: "udia" -220 600 mark 0
LayerCount: 2
Fore
SplineSet
-138 714 m 1xd8
 -137 705 l 1
 -137 657 -163 615 -224 615 c 0
 -266 615 -311 645 -311 698 c 0
 -311 751 -274 787 -222 787 c 1xb8
 -162 780 l 1
 -130 780 -117 791 -97 811 c 0
 -92 816 -87 818 -82 818 c 0
 -66 818 -39 791 -39 778 c 0
 -39 770 -41 766 -45 761 c 0
 -71 731 -95 714 -138 714 c 1xd8
-194 698 m 0
 -194 715 -208 726 -222 726 c 0
 -236 726 -249 715 -249 698 c 0
 -249 681 -236 670 -222 670 c 0
 -208 670 -194 681 -194 698 c 0
EndSplineSet
EndChar

StartChar: uni0ECD
Encoding: 148 3789 52
Width: 0
GlyphClass: 4
Flags: HW
HStem: 622 64<-299.535 -227.983> 764 62<-299.353 -227.972>
VStem: -368 64<690.798 757.953> -223 65<691.545 758.566>
AnchorPoint: "tone" -240 870 basemark 0
AnchorPoint: "cabove" -260 620 mark 0
LayerCount: 2
Fore
SplineSet
-263 764 m 0
 -284 764 -304 747 -304 725 c 0
 -304 703 -286 686 -264 686 c 0
 -242 686 -223 702 -223 725 c 0
 -223 747 -242 764 -263 764 c 0
-368 724 m 0
 -368 781 -322 826 -262 826 c 0
 -205 826 -158 783 -158 724 c 0
 -158 665 -205 622 -262 622 c 0
 -322 622 -368 668 -368 724 c 0
EndSplineSet
EndChar

StartChar: uni0ED0
Encoding: 149 3792 53
Width: 573
GlyphClass: 2
Flags: W
HStem: 0 77<206.971 366.811> 481 76<206.971 363.775>
VStem: 49 109<135.627 421.865> 416 109<135.627 421.865>
LayerCount: 2
Fore
SplineSet
525 279 m 0
 525 88 444 0 287 0 c 0
 130 0 49 88 49 279 c 0
 49 469 130 557 287 557 c 0
 444 557 525 469 525 279 c 0
416 279 m 0
 416 382 412 481 287 481 c 0
 161 481 158 382 158 279 c 0
 158 175 161 77 287 77 c 0
 412 77 416 175 416 279 c 0
EndSplineSet
EndChar

StartChar: uni0ED1
Encoding: 150 3793 54
Width: 630
GlyphClass: 2
Flags: W
HStem: -27 99<213.954 310.074> 168 70<174.999 295.842> 249 56<243.608 296.635> 370 64<243.885 316.127> 496 82<201.978 380.451>
VStem: 38 100<275.931 435.014> 170 72<307.208 367.958> 323 85<309.761 363.547> 473 109<213.763 399.178>
LayerCount: 2
Back
SplineSet
138 338 m 5
 138 277 185 243 244 243 c 0
 267 243 284 246 297 254 c 1
 287 251 276 249 264 249 c 0
 200 249 170 298 170 340 c 0
 170 396 212 434 280 434 c 0
 353 434 408 387 408 314 c 0
 408 223 329 168 238 168 c 0
 118 168 38 253 38 370 c 0
 38 510 176 578 287 578 c 0
 447 578 582 492 582 305 c 0
 582 135 451 33 312 -16 c 0
 290 -23 268 -27 250 -27 c 0
 228 -27 207 -11 207 25 c 0
 207 53 214 68 238 72 c 0
 346 92 473 164 473 303 c 0
 473 418 399 496 289 496 c 0
 215 496 149 452 138 383 c 0
323 319 m 1
 323 351 305 370 277 370 c 0
 253 370 242 360 242 337 c 0
 242 316 251 305 277 305 c 0
 296 305 311 311 323 319 c 1
EndSplineSet
Fore
SplineSet
138 359 m 0
 138 268 186 238 245 238 c 0
 268 238 284 246 297 254 c 1
 287 251 276 249 264 249 c 0
 200 249 170 298 170 340 c 0
 170 396 212 434 280 434 c 0
 353 434 408 387 408 314 c 0
 408 223 329 168 238 168 c 0
 118 168 38 253 38 370 c 0
 38 510 176 578 287 578 c 0
 447 578 582 492 582 305 c 0
 582 135 451 33 312 -16 c 0
 290 -23 268 -27 250 -27 c 0
 228 -27 207 -11 207 25 c 0
 207 53 214 68 238 72 c 0
 346 92 473 164 473 303 c 0
 473 418 399 496 289 496 c 0
 215 496 138 457 138 359 c 0
323 319 m 1
 323 351 305 370 277 370 c 0
 253 370 242 360 242 337 c 0
 242 316 251 305 277 305 c 0
 296 305 311 311 323 319 c 1
EndSplineSet
EndChar

StartChar: uni0ED2
Encoding: 151 3794 55
Width: 635
GlyphClass: 2
Flags: W
HStem: 0 86<218.733 388.748> 225 71<405.276 465.735>
VStem: 24 114<168.089 351.35> 322 81<164.31 222.811> 471 93<164.88 220.062>
LayerCount: 2
Fore
SplineSet
582 645 m 0
 419 484 138 474 138 271 c 0
 138 136 217 86 311 86 c 0
 340 86 368 90 392 96 c 1
 349 109 322 146 322 192 c 0
 322 253 358 296 443 296 c 0
 526 296 564 242 564 170 c 0
 564 60 460 0 293 0 c 0
 102 0 24 130 24 268 c 0
 24 543 316 556 507 717 c 0
 516 725 524 731 534 731 c 0
 541 731 558 718 568 709 c 0
 579 699 592 678 592 668 c 0
 592 659 589 652 582 645 c 0
471 173 m 1
 471 216 453 225 436 225 c 0
 418 225 403 218 403 194 c 0
 403 176 414 162 436 162 c 0
 447 162 459 167 471 173 c 1
EndSplineSet
EndChar

StartChar: uni0ED3
Encoding: 152 3795 56
Width: 819
GlyphClass: 2
Flags: W
HStem: 0 76<130.232 189.685 426.173 608.307> 145 73<127.422 190.241> 659 98<627.518 758> 740 84<426.981 525.405>
VStem: 49 77<82.7831 143.198> 193 66<89.3906 141.927> 273 107<124.059 554.314> 335 91<685.39 740.479> 654 106<121.169 492.75>
DStem2: 465 676 444 587 0.910572 -0.413352<-50.0194 249.558>
LayerCount: 2
Back
SplineSet
159 3 m 0
 87 3 49 54 49 114 c 0
 49 180 93 218 160 218 c 0
 215 218 259 181 259 129 c 0
 259 116 257 103 252 89 c 1
 271 103 273 127 273 160 c 2
 273 522 l 2
 273 555 300 558 327 558 c 0
 352 558 380 557 380 522 c 2
 380 223 l 2
 380 110 426 76 519 76 c 0
 612 76 654 110 654 222 c 2
 654 394 l 2xde80
 654 478 646 496 596 518 c 2
 444 587 l 2
 386 613 335 632 335 715 c 0
 335 773 365 807 399 818 c 0
 428 828 469 824 483 824 c 0xdd80
 534 824 633 757 674 757 c 0
 707 757 690 800 722 821 c 1
 728 835 747 837 769 837 c 0
 801 837 807 817 807 802 c 0
 807 736 794 659 722 659 c 0xed80
 685 659 641 675 610 687 c 1
 587 694 479 740 458 740 c 1
 441 744 426 732 426 712 c 0xdd80
 426 693 440 687 465 676 c 0
 489 666 511 656 531 648 c 0
 736 561 760 559 760 398 c 2
 760 222 l 2
 760 37 651 0 518 0 c 0
 448 0 372 7 330 76 c 1
 315 35 261 3 215 3 c 0
187 75 m 2
 191 86 193 101 193 110 c 0
 193 130 180 145 159 145 c 0
 138 145 126 133 126 113 c 0
 126 91 144 75 187 75 c 2
EndSplineSet
Fore
SplineSet
187 75 m 1xcc80
 191 86 193 101 193 110 c 0
 193 130 180 145 159 145 c 0
 138 145 126 133 126 113 c 0
 126 91 144 75 187 75 c 1xcc80
182 0 m 0
 85 0 49 54 49 114 c 0
 49 180 93 218 160 218 c 0
 215 218 259 181 259 129 c 0
 259 116 257 103 252 89 c 1
 271 103 273 127 273 160 c 2
 273 522 l 2
 273 555 300 558 327 558 c 0
 352 558 380 557 380 522 c 2
 380 223 l 2xde80
 380 110 426 76 519 76 c 0
 612 76 654 110 654 222 c 2
 654 394 l 2
 654 478 646 496 596 518 c 2
 444 587 l 2
 386 613 335 632 335 715 c 0
 335 773 365 807 399 818 c 0
 428 828 469 824 483 824 c 0xdd80
 534 824 633 757 674 757 c 0
 707 757 690 800 722 821 c 1
 728 835 747 837 769 837 c 0
 801 837 807 817 807 802 c 0
 807 736 794 659 722 659 c 0xed80
 685 659 641 675 610 687 c 1
 587 694 479 740 458 740 c 1
 441 744 426 732 426 712 c 0xdd80
 426 693 440 687 465 676 c 0
 489 666 511 656 531 648 c 0
 736 561 760 559 760 398 c 2
 760 222 l 2
 760 37 651 0 518 0 c 0
 448 0 372 7 330 76 c 1
 315 35 265 0 182 0 c 0
EndSplineSet
EndChar

StartChar: uni0ED4
Encoding: 153 3796 57
Width: 694
GlyphClass: 2
Flags: W
HStem: 0 73<189.732 326.276 495.044 556.036> 136 73<492.516 554.864> 237 73<492.539 554.267> 375 71<494.914 554.562>
VStem: 49 107<106.719 369.761> 385 107<119.323 134.889 204 242 311.254 370.456> 557 76<74.1351 134.245 312.125 372.459>
DStem2: 180 503 248 425 0.918104 0.39634<-51.9802 332.836>
LayerCount: 2
Back
SplineSet
492 317 m 1
 504 313 516 310 526 310 c 0
 541 310 557 321 557 342 c 0
 557 363 542 375 526 375 c 0
 503 375 492 358 492 343 c 2
 492 317 l 1
492 126 m 1
 492 121 l 2
 492 100 494 78 514 75 c 1
 522 72 530 72 539 76 c 1
 551 79 557 91 557 104 c 0
 557 121 545 136 523 136 c 0
 513 136 503 132 492 126 c 1
385 136 m 1
 385 319 l 2
 385 401 437 446 518 446 c 0
 586 446 633 402 633 342 c 0
 633 283 588 237 525 237 c 0
 514 237 503 239 492 242 c 1
 492 204 l 1
 503 207 515 209 527 209 c 0
 596 209 633 155 633 107 c 0
 633 52 596 0 515 0 c 0
 462 0 425 19 404 55 c 1
 364 26 315 0 247 0 c 0
 132 0 49 56 49 198 c 0
 49 365 54 449 180 503 c 1
 251 532 327 562 394 594 c 1
 477 629 490 687 536 712 c 0
 564 728 594 694 601 675 c 0
 603 668 604 661 601 655 c 1
 565 616 530 542 431 504 c 1
 248 425 l 2
 162 388 156 345 156 200 c 0
 156 126 171 76 255 76 c 0
 309 76 348 106 385 136 c 1
EndSplineSet
Fore
SplineSet
492 317 m 5
 504 313 516 310 526 310 c 4
 541 310 557 321 557 342 c 4
 557 363 542 375 526 375 c 4
 503 375 492 358 492 343 c 6
 492 317 l 5
525 73 m 4
 552 73 557 91 557 104 c 4
 557 121 545 136 523 136 c 4
 513 136 503 132 492 126 c 5
 492 121 l 6
 492 100 492 73 525 73 c 4
385 136 m 5
 385 319 l 6
 385 401 437 446 518 446 c 4
 586 446 633 402 633 342 c 4
 633 283 588 237 525 237 c 4
 514 237 503 239 492 242 c 5
 492 204 l 5
 503 207 515 209 527 209 c 4
 596 209 633 155 633 107 c 4
 633 52 596 0 515 0 c 4
 462 0 425 19 404 55 c 5
 364 26 315 0 247 0 c 4
 132 0 49 56 49 198 c 4
 49 365 54 449 180 503 c 1
 251 532 327 562 394 594 c 1
 477 629 490 687 536 712 c 0
 541 715 546 716 551 716 c 0
 574 716 595 691 601 675 c 0
 603 668 604 661 601 655 c 1
 565 616 530 542 431 504 c 1
 248 425 l 2
 162 388 156 345 156 200 c 4
 156 126 171 76 255 76 c 4
 309 76 348 106 385 136 c 5
EndSplineSet
EndChar

StartChar: uni0ED5
Encoding: 154 3797 58
Width: 694
GlyphClass: 2
Flags: W
HStem: 0 73<189.732 326.276 495.044 556.036> 136 73<492.516 554.864> 237 73<492.539 554.267> 375 71<494.914 554.562> 605 64<223.413 285.725>
VStem: 49 107<106.719 376.683> 147 75<542.128 602.585> 288 75<572.141 603.21> 385 107<119.323 134.889 204 242 311.254 370.456> 557 76<74.1351 134.245 312.125 372.459>
LayerCount: 2
Fore
SplineSet
492 317 m 1xf9c0
 504 313 516 310 526 310 c 0
 541 310 557 321 557 342 c 0
 557 363 542 375 526 375 c 0
 503 375 492 358 492 343 c 2
 492 317 l 1xf9c0
525 73 m 0
 552 73 557 91 557 104 c 0
 557 121 545 136 523 136 c 0
 513 136 503 132 492 126 c 1
 492 121 l 2
 492 100 492 73 525 73 c 0
49 198 m 0xfdc0
 49 360 59 451 180 500 c 1
 182 501 l 1
 185 502 l 1
 162 520 147 545 147 580 c 0xfbc0
 147 643 205 679 277 669 c 1
 341 669 363 615 363 572 c 1
 451 605 479 644 512 685 c 1
 535 703 l 1
 543 707 551 707 560 704 c 0
 584 698 607 674 607 656 c 0
 607 643 585 623 576 613 c 0
 548 579 522 545 453 513 c 0
 429 502 369 477 313 471 c 1
 287 448 257 433 245 428 c 0
 157 394 156 344 156 200 c 0
 156 126 171 76 255 76 c 0
 309 76 348 106 385 136 c 1
 385 319 l 2
 385 401 437 446 518 446 c 0
 586 446 633 402 633 342 c 0
 633 283 588 237 525 237 c 0
 514 237 503 239 492 242 c 1
 492 204 l 1
 503 207 515 209 527 209 c 0
 596 209 633 155 633 107 c 0
 633 52 596 0 515 0 c 0
 462 0 425 19 404 55 c 1
 364 26 315 0 247 0 c 0
 132 0 49 56 49 198 c 0xfdc0
272 539 m 1
 281 549 288 562 288 578 c 0
 288 592 273 605 257 605 c 0
 237 605 222 591 222 575 c 0
 222 555 237 539 260 539 c 2
 272 539 l 1
EndSplineSet
EndChar

StartChar: uni0ED6
Encoding: 155 3798 59
Width: 717
GlyphClass: 2
Flags: W
HStem: 0 77<172.765 267.936 415.212 504.787> 348 73<156.516 217.967> 487 71<161.568 217.843> 640 92<500.891 604.5> 710 78<324.978 423.462>
VStem: 49 107<92.9258 353 422.07 484.231> 220 77<423.59 484.523> 232 92<651.15 709.628> 286 107<99.7173 258.786> 523 109<94.8044 470.566> 574 94<735.277 808.096>
LayerCount: 2
Fore
SplineSet
632 389 m 2xf540
 632 232 l 2
 632 55 577 0 476 0 c 0
 409 0 365 22 342 95 c 1
 322 22 273 0 205 0 c 0
 101 0 49 57 49 221 c 2
 49 382 l 2
 49 480 80 558 181 558 c 0
 250 558 297 514 297 454 c 0
 297 395 255 348 188 348 c 0
 177 348 167 350 156 353 c 1
 156 194 l 2
 156 114 169 77 220 77 c 0xf640
 276 77 286 118 286 211 c 0
 286 260 310 264 342 264 c 0
 372 264 393 260 393 211 c 0xf480
 393 112 415 77 461 77 c 0
 502 77 523 98 523 194 c 2
 523 422 l 2
 523 493 431 515 342 552 c 1
 283 581 232 595 232 682 c 0xf540
 232 740 263 771 297 782 c 0
 327 792 368 788 382 788 c 0xee
 452 788 530 732 555 732 c 0
 571 732 574 736 574 755 c 2
 574 781 l 2
 574 807 597 811 622 811 c 0
 647 811 668 805 668 781 c 2
 668 755 l 2
 668 666 627 640 582 640 c 0xf620
 511 640 397 710 351 710 c 0xee20
 333 710 324 702 324 682 c 0
 324 664 339 652 363 640 c 1
 577 550 632 541 632 389 c 2xf540
156 428 m 1
 167 424 179 421 189 421 c 0
 204 421 220 432 220 454 c 0
 220 474 206 487 189 487 c 0
 167 487 156 469 156 434 c 2
 156 428 l 1
EndSplineSet
EndChar

StartChar: uni0ED7
Encoding: 156 3799 60
Width: 725
GlyphClass: 2
Flags: W
HStem: 0 71<129.127 186.864> 135 74<128.977 191.461> 348 73<129.558 191.507> 485 72<128.77 189.457 364.809 503.885>
VStem: 51 76<73.0765 132.963 423.5 482.807> 192 107<74.6212 133.746 204 352 422.257 435.697> 543 107<-66.6145 446.903>
LayerCount: 2
Fore
SplineSet
543 63 m 2
 543 357 l 2
 543 428 524 481 437 481 c 0
 380 481 338 450 298 418 c 1
 298 412 299 405 299 398 c 2
 299 145 l 2
 299 55 255 0 166 0 c 0
 97 0 51 43 51 103 c 0
 51 162 94 209 158 209 c 0
 169 209 181 207 192 204 c 1
 192 352 l 1
 182 349 171 348 159 348 c 0
 95 348 51 395 51 453 c 0
 51 512 94 557 167 557 c 0
 222 557 258 538 279 499 c 1
 321 530 374 558 445 558 c 0
 564 558 650 505 650 335 c 2
 650 98 l 2
 650 5 676 -66 676 -102 c 0
 676 -131 644 -141 606 -141 c 0
 592 -141 577 -137 571 -119 c 1
 564 -105 543 -22 543 63 c 2
192 432 m 1
 192 447 l 2
 192 469 182 485 159 485 c 0
 138 485 127 471 127 453 c 0
 127 436 140 421 160 421 c 0
 170 421 181 425 192 432 c 1
192 128 m 1
 180 132 168 135 158 135 c 0
 143 135 127 125 127 103 c 0
 127 83 142 71 158 71 c 0
 181 71 192 88 192 126 c 2
 192 128 l 1
EndSplineSet
EndChar

StartChar: uni0ED8
Encoding: 157 3800 61
Width: 736
GlyphClass: 2
Flags: W
HStem: -301 62<488.927 551.819> -299 82<169.37 261.792> 0 71<158.202 217.962> 135 74<156.516 218.056> 481 77<176.539 267.546 411.641 504.401>
VStem: 49 107<72.8809 133.93 204 460.16> 85 83<-214.209 -156.54> 220 77<72.7934 132.963> 286 108<326.673 461.751> 522 111<52 462.448> 555 65<-236.134 -177.856>
DStem2: 240 -48 289 -115 0.942496 0.334218<-109.81 263.865>
LayerCount: 2
Back
SplineSet
633 325 m 6xfa
 633 30 l 6
 633 0 604 0 577 0 c 0
 552 0 523 0 523 30 c 6
 523 368 l 6
 523 454 502 481 459 481 c 4
 415 481 394 458 394 361 c 4
 394 330 373 322 340 322 c 4
 309 322 286 329 286 361 c 4xf6
 286 457 264 481 220 481 c 4
 169 481 156 435 156 367 c 6
 156 204 l 5
 167 207 178 209 189 209 c 4
 253 209 297 162 297 103 c 4
 297 42 250 0 181 0 c 4
 80 0 49 77 49 174 c 6
 49 336 l 6
 49 500 102 558 206 558 c 4
 273 558 320 535 340 463 c 5
 363 538 409 558 477 558 c 4
 578 558 633 502 633 325 c 6xfa
EndSplineSet
Fore
SplineSet
633 30 m 1x7d40
 633 8 l 1x7d40
 606 0 l 1
 597 -43 l 1
 537 -124 l 1
 543 -126 550 -129 555 -132 c 1
 595 -146 620 -171 620 -213 c 0
 620 -263 574 -301 523 -301 c 0xb820
 479 -301 427 -272 417 -210 c 1
 382 -229 319 -264 298 -271 c 1
 262 -288 228 -299 193 -299 c 0
 137 -299 85 -258 85 -193 c 0
 85 -99 154 -76 240 -48 c 1
 522 52 l 25
 522 368 l 2
 522 454 502 481 459 481 c 0
 415 481 394 458 394 361 c 0
 394 330 373 322 340 322 c 0
 309 322 286 329 286 361 c 0x7ac0
 286 457 264 481 220 481 c 0
 169 481 156 435 156 367 c 2
 156 204 l 1
 167 207 178 209 189 209 c 0
 253 209 297 162 297 103 c 0
 297 42 250 0 181 0 c 0
 80 0 49 77 49 174 c 2
 49 336 l 2
 49 500 102 558 206 558 c 0
 273 558 320 535 340 463 c 1
 363 538 409 558 477 558 c 0
 578 558 633 502 633 325 c 2
 633 30 l 1x7d40
156 128 m 1
 156 103 l 2
 156 88 167 71 189 71 c 0
 206 71 220 83 220 103 c 0
 220 125 204 135 189 135 c 0
 179 135 167 132 156 128 c 1
431 -127 m 1
 437 -118 444 -110 451 -103 c 2
 515 -34 l 1
 289 -115 l 1
 238 -132 168 -152 168 -187 c 0x7a
 168 -204 179 -217 205 -217 c 0
 216 -217 233 -209 246 -203 c 0
 302 -176 373 -142 431 -127 c 1
522 -176 m 1xb840
 512 -178 503 -179 493 -182 c 1
 489 -189 487 -200 487 -208 c 0
 487 -228 506 -239 522 -239 c 0xb840
 538 -239 555 -225 555 -206 c 1xb820
 555 -192 542 -178 528 -176 c 1
 522 -176 l 1xb840
EndSplineSet
EndChar

StartChar: uni0ED9
Encoding: 158 3801 62
Width: 730
GlyphClass: 2
Flags: W
HStem: 0 71<159.397 217.962 471.178 553.515> 135 74<156.516 218.056> 481 77<189.393 319.069>
VStem: 49 107<73.3206 133.93 204 445.781> 220 77<72.7934 132.963> 343 108<90.7031 457.037> 574 107<90.4956 554.339>
LayerCount: 2
Fore
SplineSet
262 481 m 0
 179 481 156 445 156 334 c 2
 156 204 l 1
 167 207 178 209 189 209 c 0
 253 209 297 162 297 103 c 0
 297 42 250 0 181 0 c 0
 92 0 49 55 49 173 c 2
 49 336 l 2
 49 514 138 558 261 558 c 0
 380 558 451 524 451 326 c 2
 451 179 l 2
 451 115 461 76 512 76 c 0
 573 76 574 129 574 231 c 2
 574 522 l 2
 574 556 603 558 628 558 c 0
 655 558 681 555 681 522 c 2
 681 197 l 2
 681 50 627 0 512 0 c 0
 413 0 343 34 343 181 c 2
 343 337 l 2
 343 430 336 481 262 481 c 0
156 128 m 1
 156 103 l 2
 156 88 167 71 189 71 c 0
 206 71 220 83 220 103 c 0
 220 125 204 135 189 135 c 0
 179 135 167 132 156 128 c 1
EndSplineSet
EndChar

StartChar: uni0EDC
Encoding: 159 3804 63
Width: 1191
GlyphClass: 2
Flags: W
HStem: 0 77<239.195 403.479 575.373 680.227 854.531 1005.09> 367 68<124.414 158.539 379.698 440.391> 481 76<603.347 693.384> 496 62<124.228 177.901 380.918 435.796>
VStem: 49 74<435.568 494.777> 92 110<112.83 268.658> 181 102<442.235 494.684> 302 77<435.337 494.506> 441 109<115.38 372> 712 109<113.369 466.219> 1038 105<110.109 554.746>
AnchorPoint: "ldia" 855 0 basechar 0
AnchorPoint: "cbelow" 885 0 basechar 0
AnchorPoint: "udia" 600 600 basechar 0
AnchorPoint: "cabove" 690 600 basechar 0
LayerCount: 2
Fore
SplineSet
821 222 m 2xe5e0
 821 115 849 76 927 76 c 0
 1009 76 1038 109 1038 211 c 2
 1038 527 l 2
 1038 557 1065 558 1090 558 c 0xd5e0
 1117 558 1143 555 1143 527 c 2
 1143 215 l 2
 1143 46 1042 0 926 0 c 0
 854 0 793 26 769 88 c 1
 744 22 684 0 598 0 c 0
 584 0 574 5 574 35 c 0
 574 68 581 77 598 77 c 0
 702 77 712 120 712 233 c 2
 712 331 l 2
 712 404 711 481 658 481 c 0
 631 481 594 453 550 425 c 1
 550 218 l 2
 550 79 475 0 335 0 c 0
 224 0 92 33 92 180 c 0xe5e0
 92 261 133 315 159 372 c 1
 154 371 149 372 144 372 c 0
 90 372 49 409 49 465 c 0
 49 527 94 558 159 558 c 0
 237 558 283 509 283 445 c 0xdbe0
 283 352 202 272 202 178 c 0
 202 100 256 77 333 77 c 0
 402 77 441 110 441 210 c 1
 441 372 l 1
 428 369 415 367 402 367 c 0
 348 367 302 401 302 462 c 0
 302 517 333 558 413 558 c 0xd5e0
 462 558 503 538 527 503 c 1
 568 531 613 557 657 557 c 0
 757 557 821 504 821 336 c 2
 821 222 l 2xe5e0
441 445 m 1
 441 474 431 496 408 496 c 0
 389 496 379 487 379 465 c 0
 379 445 387 435 406 435 c 0
 417 435 428 439 441 445 c 1
181 442 m 1xdbe0
 182 447 181 453 181 458 c 0
 181 486 169 496 152 496 c 0
 136 496 123 487 123 467 c 0
 123 446 134 435 151 435 c 0
 160 435 171 438 181 442 c 1xdbe0
EndSplineSet
EndChar

StartChar: uni0EDD
Encoding: 160 3805 64
Width: 1251
GlyphClass: 2
Flags: W
HStem: 0 77<239.382 403.272 660.352 722.165 866.046 1004.81> 136 73<661.433 723.508> 367 68<124.414 158.539 379.698 440.391> 481 77<625.268 717.069> 496 62<124.228 177.901 380.918 435.518>
VStem: 49 74<435.568 494.777> 92 110<112.611 268.658> 181 102<442.235 494.684> 302 77<435.337 494.506> 441 109<115.38 372> 583 76<74.041 133.303> 724 107<107.953 134.708 204 476.033> 1027 108<100.617 553.498>
AnchorPoint: "ldia" 855 0 basechar 0
AnchorPoint: "cbelow" 885 0 basechar 0
AnchorPoint: "udia" 600 600 basechar 0
AnchorPoint: "cabove" 690 600 basechar 0
LayerCount: 2
Fore
SplineSet
691 136 m 0xe0f8
 674 136 659 122 659 105 c 0
 659 87 670 71 693 71 c 0
 713 71 724 88 724 110 c 2
 724 124 l 1
 713 132 703 136 691 136 c 0xe0f8
808 48 m 1
 786 15 749 0 699 0 c 0
 626 0 583 44 583 115 c 0
 583 161 634 209 691 209 c 0
 703 209 714 207 724 204 c 1
 724 423 l 2
 724 477 698 481 681 481 c 0
 652 481 605 447 550 416 c 1
 550 218 l 2
 550 79 475 0 335 0 c 0
 224 0 92 33 92 180 c 0xf2f8
 92 261 133 315 159 372 c 1
 154 371 149 372 144 372 c 0
 90 372 49 409 49 465 c 0
 49 527 94 558 159 558 c 0
 237 558 283 509 283 445 c 0xedf8
 283 352 202 272 202 178 c 0
 202 99 257 77 333 77 c 0
 401 77 441 110 441 210 c 1
 441 372 l 1
 428 369 415 367 402 367 c 0
 348 367 302 401 302 462 c 0
 302 517 333 558 413 558 c 0
 466 558 510 536 533 496 c 1xeaf8
 586 527 645 558 694 558 c 0xf2f8
 793 558 831 495 831 402 c 2
 831 144 l 2
 831 138 830 132 830 126 c 1
 861 99 895 76 939 76 c 0
 1017 76 1027 121 1027 185 c 2
 1027 523 l 2
 1027 557 1061 557 1082 557 c 2
 1085 557 l 2
 1108 557 1135 555 1135 523 c 2
 1135 206 l 2
 1135 76 1075 0 950 0 c 0
 886 0 842 22 808 48 c 1
441 444 m 1
 441 473 431 496 408 496 c 0xe8f8
 389 496 379 487 379 465 c 0
 379 445 387 435 406 435 c 0
 416 435 428 438 441 444 c 1
181 442 m 1xedf8
 182 447 181 453 181 458 c 0
 181 486 169 496 152 496 c 0
 136 496 123 487 123 467 c 0
 123 446 134 435 151 435 c 0
 160 435 171 438 181 442 c 1xedf8
EndSplineSet
EndChar

StartChar: uni0E81
Encoding: 161 3713 65
Width: 698
GlyphClass: 2
Flags: W
HStem: 0 71<127.084 187.006> 135 74<126.977 188.484> 348 73<127.204 188.507> 487 71<126.801 186.363 370.011 500.285>
VStem: 49 76<72.9702 132.963 423.374 484.94> 189 108<72.672 133.93 204 352 422.221 433.338> 543 107<2.99627 445.251>
AnchorPoint: "ldia" 490 0 basechar 0
AnchorPoint: "cbelow" 480 0 basechar 0
AnchorPoint: "udia" 326 600 basechar 0
AnchorPoint: "cabove" 422 599 basechar 0
LayerCount: 2
Fore
SplineSet
280 500 m 1
 322 530 375 558 445 558 c 0
 564 558 650 503 650 333 c 2
 650 34 l 1
 650 1.04021 624 -0.450018 597 0 c 1
 572 0 543 0 543 34 c 2
 543 356 l 2
 543 428 524 481 437 481 c 0
 380 481 338 449 297 417 c 1
 297 175 l 2
 297 76 267 0 164 0 c 0
 95 0 49 43 49 103 c 0
 49 162 92 209 156 209 c 0
 167 209 178 207 189 204 c 1
 189 352 l 1
 179 349 168 348 156 348 c 0
 93 348 49 395 49 453 c 0
 49 511 91 558 165 558 c 0
 217 558 258 539 280 500 c 1
189 431 m 1
 189 447 l 2
 189 469 180 487 156 487 c 0
 136 487 125 471 125 453 c 0
 125 436 137 421 157 421 c 0
 167 421 178 425 189 431 c 1
189 128 m 1
 178 132 166 135 156 135 c 0
 141 135 125 125 125 103 c 0
 125 83 139 71 156 71 c 0
 178 71 189 88 189 103 c 2
 189 128 l 1
EndSplineSet
EndChar

StartChar: exclam
Encoding: 3 33 67
Width: 256
GlyphClass: 2
Flags: W
HStem: -19 144<76.875 180>
VStem: 55 147<3.61965 102.38> 80 97<381.483 784.201>
LayerCount: 2
Fore
SplineSet
128 794 m 0xa0
 181 794 177 725 177 640 c 0
 176 498 166 360 153 261 c 0
 146 204 143 190 128 190 c 0
 113 190 110 204 103 262 c 0
 90 360 80 498 80 640 c 0
 80 721 75 794 128 794 c 0xa0
202 53 m 0xc0
 202 14 168 -19 128 -19 c 0
 89 -19 55 14 55 53 c 0
 55 92 89 125 128 125 c 0
 168 125 202 92 202 53 c 0xc0
EndSplineSet
EndChar

StartChar: quotedbl
Encoding: 4 34 68
Width: 423
GlyphClass: 2
Flags: W
HStem: 376 252<81 150 271 340>
VStem: 81 69<376 460> 271 69<376 460>
LayerCount: 2
Fore
SplineSet
171 628 m 1
 164 544 157 460 150 376 c 1
 81 376 l 1
 61 628 l 1
 171 628 l 1
361 628 m 1
 354 544 347 460 340 376 c 1
 271 376 l 1
 264 460 257 544 250 628 c 1
 361 628 l 1
EndSplineSet
EndChar

StartChar: numbersign
Encoding: 5 35 69
Width: 532
GlyphClass: 2
Flags: W
HStem: 91 81<54 123 214 295 386 478> 262 81<54 145 236 316 407 478>
VStem: 108 81<-26 55> 173 81<394 475> 279 81<-26 55> 345 80<395 475>
DStem2: 108 -26 189 -26 0.128662 0.991688<10.4216 117.957 209.993 290.367 382.402 505.199> 279 -26 360 -26 0.130608 0.991434<10.5793 118.088 210.279 290.366 382.557 505.329>
LayerCount: 2
Fore
SplineSet
316 262 m 1xc0
 225 262 l 1
 221 232 218 202 214 172 c 1
 305 172 l 1
 309 202 312 232 316 262 c 1xc0
478 91 m 1
 375 91 l 1
 370 52 365 13 360 -26 c 1
 279 -26 l 1
 284 13 290 52 295 91 c 1
 204 91 l 1
 199 52 194 13 189 -26 c 1
 108 -26 l 1xe8
 113 13 118 52 123 91 c 1
 54 91 l 1
 54 172 l 1
 134 172 l 1
 138 202 141 232 145 262 c 1
 54 262 l 1
 54 343 l 1
 155 343 l 1
 161 387 167 431 173 475 c 1
 254 475 l 1
 248 431 242 387 236 343 c 1
 327 343 l 1
 333 387 339 431 345 475 c 1
 425 475 l 1xd4
 419 431 413 387 407 343 c 1
 478 343 l 1
 478 262 l 1
 397 262 l 1
 393 232 390 202 386 172 c 1
 478 172 l 1
 478 91 l 1
EndSplineSet
EndChar

StartChar: dollar
Encoding: 6 36 70
Width: 492
GlyphClass: 2
Flags: W
HStem: -13 88<164.555 225 269 332.177> 542 88<164.851 225 269 321.629>
VStem: 27 103<112.337 189> 39 101<402.617 518.006> 225 44<-91 -11.5698 76 265 374 542 631 691> 341 103<453 523> 363 102<104.003 229.213>
LayerCount: 2
Fore
SplineSet
363 166 m 0xca
 363 231 328 247 269 265 c 1
 269 76 l 1
 325 81 363 105 363 166 c 0xca
225 374 m 1
 225 542 l 1
 154 536 140 501 140 455 c 0xd8
 140 404 170 392 225 374 c 1
465 175 m 0xca
 465 52 367 -3 269 -12 c 1
 269 -91 l 1
 225 -91 l 1
 225 -13 l 1
 98 -6 27 69 27 189 c 1
 130 189 l 1xea
 130 125 155 79 225 75 c 1
 225 274 l 1
 122 304 39 327 39 449 c 0
 39 553 121 630 225 630 c 1
 225 691 l 1
 269 691 l 1
 269 631 l 1
 379 631 444 553 444 453 c 1
 341 453 l 1xdc
 341 514 321 540 269 544 c 1
 269 360 l 1
 353 338 465 317 465 175 c 0xca
EndSplineSet
EndChar

StartChar: percent
Encoding: 7 37 71
Width: 695
GlyphClass: 2
Flags: W
HStem: -44 68<480.504 567.276> 144 69<478.883 567.276> 208 68<126.317 215.438> 395 69<128.242 213.553>
VStem: 44 69<289.9 379.732> 229 70<289.9 379.732> 397 68<38.6955 130.154> 582 69<38.6955 128.694>
DStem2: 140 -15 201 -67 0.577385 0.816472<-1.33097 607.605>
LayerCount: 2
Fore
SplineSet
582 84 m 0xdf
 582 116 554 144 525 144 c 0
 490 144 465 116 465 84 c 0
 465 53 491 24 525 24 c 0
 554 24 582 53 582 84 c 0xdf
229 335 m 0
 229 366 202 395 173 395 c 0
 139 395 113 366 113 335 c 0
 113 303 139 276 173 276 c 0xbf
 202 276 229 303 229 335 c 0
651 84 m 0
 651 18 592 -44 525 -44 c 0
 456 -44 397 18 397 84 c 0
 397 153 456 213 525 213 c 0xdf
 592 213 651 153 651 84 c 0
299 335 m 0
 299 269 240 208 173 208 c 0xbf
 103 208 44 269 44 335 c 0
 44 405 103 464 173 464 c 0
 240 464 299 405 299 335 c 0
556 435 m 1
 201 -67 l 1
 181 -49 160 -33 140 -15 c 1
 491 484 l 1
 556 435 l 1
EndSplineSet
EndChar

StartChar: ampersand
Encoding: 8 38 72
Width: 676
GlyphClass: 2
Flags: W
HStem: -12 81<207.832 384.632> 0 21G<510.113 668> 564 76<225.821 336.466>
VStem: 49 105<121.384 248.853> 109 99<444.518 545.532> 355 90<455.946 544.991> 479 105<195.73 344>
DStem2: 464 186 413 112 0.7282 -0.685365<-217.856 0 95.5632 176.995>
LayerCount: 2
Fore
SplineSet
413 112 m 1xb6
 342 176 280 242 230 302 c 1
 186 276 154 226 154 182 c 0
 154 131 200 76 262 70 c 0
 275 68 288 68 300 69 c 0
 345 71 384 84 413 112 c 1xb6
355 506 m 0
 355 535 321 564 286 564 c 0
 235 564 208 536 208 503 c 0x2e
 208 474 228 440 264 400 c 1
 312 425 355 467 355 506 c 0
668 0 m 1x6e
 532 0 l 1x6e
 474 53 l 1
 430 15 362 -12 278 -12 c 0
 160 -12 49 51 49 175 c 0xb6
 49 269 102 324 182 361 c 1
 137 402 109 452 109 506 c 0
 109 594 195 640 277 640 c 0
 363 640 445 600 445 519 c 0
 445 431 371 385 312 347 c 1
 355 294 405 242 464 186 c 1
 481 236 484 285 479 344 c 1
 584 344 l 1
 582 262 567 188 533 120 c 1
 558 89 619 35 668 0 c 1x6e
EndSplineSet
EndChar

StartChar: quotesingle
Encoding: 9 39 73
Width: 338
GlyphClass: 2
Flags: W
HStem: 376 252<134 203>
VStem: 134 69<376 460>
LayerCount: 2
Fore
SplineSet
224 628 m 1
 217 544 210 460 203 376 c 1
 134 376 l 1
 127 460 120 544 113 628 c 1
 224 628 l 1
EndSplineSet
EndChar

StartChar: parenleft
Encoding: 10 40 74
Width: 419
GlyphClass: 2
Flags: W
VStem: 72 81<-14.3721 443.393> 282 91<-450 -359 801 892>
LayerCount: 2
Fore
SplineSet
373 -450 m 1
 282 -450 l 1
 130 -260 72 -45 72 212 c 0
 72 475 140 689 284 892 c 1
 373 892 l 1
 224 687 153 467 153 212 c 0
 153 -32 220 -261 373 -450 c 1
EndSplineSet
EndChar

StartChar: parenright
Encoding: 11 41 75
Width: 420
GlyphClass: 2
Flags: W
VStem: 46 91<-444 -353 807 898> 267 80<-8.02966 443.624>
LayerCount: 2
Fore
SplineSet
347 218 m 0
 347 -39 290 -254 137 -444 c 1
 46 -444 l 1
 201 -256 267 -24 267 218 c 0
 267 472 195 693 46 898 c 1
 135 898 l 1
 279 695 347 481 347 218 c 0
EndSplineSet
EndChar

StartChar: asterisk
Encoding: 12 42 76
Width: 554
GlyphClass: 2
Flags: W
VStem: 237 82<216 377 521 681>
DStem2: 98 600 54 530 0.864789 -0.502136<0 158.145 303.095 463.108> 54 367 98 296 0.86572 0.500528<2.5542 163.432 306.497 465.508>
LayerCount: 2
Fore
SplineSet
499 368 m 1
 485 344 471 320 457 296 c 1
 411 323 365 350 319 377 c 1
 319 216 l 1
 237 216 l 1
 237 377 l 1
 98 296 l 1
 54 367 l 1
 196 448 l 1
 54 530 l 1
 98 600 l 1
 235 521 l 1
 235 681 l 1
 319 681 l 1
 319 521 l 1
 457 600 l 1
 499 529 l 1
 359 448 l 1
 499 368 l 1
EndSplineSet
EndChar

StartChar: plus
Encoding: 13 43 77
Width: 562
GlyphClass: 2
Flags: W
HStem: 178 80<91 241 321 472>
VStem: 241 80<28 178 258 410>
LayerCount: 2
Fore
SplineSet
472 258 m 1
 472 178 l 1
 321 178 l 1
 321 28 l 1
 241 28 l 1
 241 178 l 1
 91 178 l 1
 91 258 l 1
 241 258 l 1
 241 410 l 1
 321 410 l 1
 321 258 l 1
 472 258 l 1
EndSplineSet
EndChar

StartChar: comma
Encoding: 14 44 78
Width: 239
GlyphClass: 2
Flags: W
HStem: -4 147<67.3698 132.928>
VStem: 138 61<-40.7141 81.5>
LayerCount: 2
Fore
SplineSet
199 58 m 0
 199 -34 143 -118 91 -145 c 1
 78 -132 l 1
 111 -108 138 -59 138 -5 c 0
 138 9 137 13 136 19 c 1
 125 11 85 -4 66 -4 c 0
 49 -4 39 27 39 58 c 0
 39 105 77 143 118 143 c 0
 165 143 199 105 199 58 c 0
EndSplineSet
EndChar

StartChar: hyphen
Encoding: 15 45 79
Width: 489
GlyphClass: 2
Flags: W
HStem: 175 81<54 434>
LayerCount: 2
Fore
SplineSet
434 256 m 1
 434 175 l 1
 54 175 l 1
 54 256 l 1
 434 256 l 1
EndSplineSet
EndChar

StartChar: period
Encoding: 16 46 80
Width: 226
GlyphClass: 2
Flags: W
HStem: -19 144<61.5 164.75>
VStem: 39 148<3.61965 102.38>
LayerCount: 2
Fore
SplineSet
187 53 m 0
 187 14 152 -19 114 -19 c 0
 74 -19 39 14 39 53 c 0
 39 92 74 125 114 125 c 0
 152 125 187 92 187 53 c 0
EndSplineSet
EndChar

StartChar: slash
Encoding: 17 47 81
Width: 514
GlyphClass: 2
Flags: W
DStem2: 54 -176 116 -238 0.33005 0.943963<0 1001.17>
LayerCount: 2
Fore
SplineSet
459 743 m 1
 116 -238 l 1
 54 -176 l 1
 397 803 l 1
 459 743 l 1
EndSplineSet
EndChar

StartChar: zero
Encoding: 18 48 82
Width: 492
GlyphClass: 2
Flags: W
HStem: -13 80<191.17 300.698> 560 80<189.801 302.054>
VStem: 37 104<141.966 494.78> 350 105<141.966 494.955>
LayerCount: 2
Fore
SplineSet
350 320 m 0
 350 444 341 560 246 560 c 0
 150 560 141 443 141 320 c 0
 141 196 150 67 246 67 c 0
 341 67 350 196 350 320 c 0
455 320 m 0
 455 138 409 -13 246 -13 c 0
 84 -13 37 138 37 320 c 0
 37 503 84 640 246 640 c 0
 409 640 455 503 455 320 c 0
EndSplineSet
EndChar

StartChar: one
Encoding: 19 49 83
Width: 492
GlyphClass: 2
Flags: W
HStem: 0 21G<242 341> 437 21G<99 125> 608 20G<224 341>
VStem: 242 99<0 513>
LayerCount: 2
Fore
SplineSet
341 0 m 1
 242 0 l 1
 242 513 l 1
 200 477 151 451 99 437 c 1
 99 526 l 1
 158 547 206 583 242 628 c 1
 341 628 l 1
 341 0 l 1
EndSplineSet
EndChar

StartChar: two
Encoding: 20 50 84
Width: 492
GlyphClass: 2
Flags: W
HStem: 0 83<155 452> 555 85<196.144 316.977>
VStem: 56 107<456 518.644> 346 106<379.948 526.756>
LayerCount: 2
Fore
SplineSet
452 0 m 1
 40 0 l 1
 40 96 l 1
 320 307 346 404 346 457 c 0
 346 516 317 555 260 555 c 0
 202 555 168 519 163 456 c 1
 56 456 l 1
 60 567 140 640 258 640 c 0
 377 640 452 561 452 466 c 0
 452 374 417 277 155 83 c 1
 452 83 l 1
 452 0 l 1
EndSplineSet
EndChar

StartChar: three
Encoding: 21 51 85
Width: 492
GlyphClass: 2
Flags: W
HStem: -13 81<182.972 305.626> 286 82<205 301.375> 558 82<182.405 304.953>
VStem: 40 108<102.493 171> 47 104<463 567> 334 105<399.053 528.854> 346 105<109.432 250.824>
LayerCount: 2
Fore
SplineSet
451 172 m 0xe2
 451 64 356 -13 245 -13 c 0
 104 -13 40 65 40 171 c 1
 148 171 l 1
 151 116 178 68 242 68 c 0
 299 68 346 111 346 173 c 0xf2
 346 266 300 286 205 286 c 1
 205 368 l 1
 290 368 334 392 334 467 c 0
 334 533 287 558 243 558 c 0
 190 558 157 524 151 463 c 1
 47 463 l 1
 54 574 127 640 243 640 c 0
 361 640 439 566 439 467 c 0xec
 439 387 397 352 348 328 c 1
 405 305 451 270 451 172 c 0xe2
EndSplineSet
EndChar

StartChar: four
Encoding: 22 52 86
Width: 492
GlyphClass: 2
Flags: W
HStem: 0 21G<293 391> 145 86<110 293 391 470> 608 20G<255.068 391>
VStem: 293 98<0 145 231 522>
DStem2: 21 246 110 231 0.542978 0.839747<35.7288 379.46>
LayerCount: 2
Fore
SplineSet
293 231 m 1
 293 522 l 1
 232 425 171 328 110 231 c 1
 293 231 l 1
470 145 m 1
 391 145 l 1
 391 0 l 1
 293 0 l 1
 293 145 l 1
 21 145 l 1
 21 246 l 1
 268 628 l 1
 391 628 l 1
 391 231 l 1
 470 231 l 1
 470 145 l 1
EndSplineSet
EndChar

StartChar: five
Encoding: 23 53 87
Width: 492
GlyphClass: 2
Flags: W
HStem: -12 82<169.609 297.482> 336 77<187.08 313.592> 541 87<163 415>
VStem: 39 105<95.7235 155> 49 104<361 523.568> 49 94<257 293.59> 63 100<363.812 541> 347 105<121.722 300.558>
LayerCount: 2
Fore
SplineSet
452 213 m 0xe9
 452 94 361 -12 243 -12 c 0
 122 -12 43 48 39 155 c 1
 144 155 l 1xf1
 144 98 180 70 238 70 c 0
 303 70 347 127 347 208 c 0
 347 288 319 336 251 336 c 0
 196 336 167 306 143 257 c 1
 49 257 l 1xe5
 54 381 58 504 63 628 c 1
 415 628 l 1
 415 541 l 1
 163 541 l 1xe3
 160 481 156 421 153 361 c 1
 181 395 217 413 280 413 c 0
 389 413 452 317 452 213 c 0xe9
EndSplineSet
EndChar

StartChar: six
Encoding: 24 54 88
Width: 492
GlyphClass: 2
Flags: W
HStem: -13 81<187.369 316.152> 317 77<192.441 315.706> 558 82<201.807 315.723>
VStem: 35 118<115.611 382.431> 35 103<317 464.5> 340 103<475 532.902> 350 107<104.635 281.396>
LayerCount: 2
Fore
SplineSet
350 193 m 0xf2
 350 274 320 317 252 317 c 0
 183 317 153 274 153 193 c 0
 153 112 183 68 252 68 c 0
 320 68 350 112 350 193 c 0xf2
457 199 m 0
 457 108 408 -13 249 -13 c 0
 69 -13 35 116 35 292 c 0xf2
 35 453 71 640 258 640 c 0
 366 640 431 579 443 475 c 1
 340 475 l 1
 337 531 306 558 259 558 c 0
 153 558 138 389 138 317 c 1xec
 167 361 202 394 279 394 c 0
 415 394 457 283 457 199 c 0
EndSplineSet
EndChar

StartChar: seven
Encoding: 25 55 89
Width: 492
GlyphClass: 2
Flags: W
HStem: 0 21G<119 246.992> 543 85<44 350>
DStem2: 119 0 239 0 0.391464 0.920194<46.9756 590.093>
LayerCount: 2
Fore
SplineSet
448 523 m 1
 239 0 l 1
 119 0 l 1
 350 543 l 1
 44 543 l 1
 44 628 l 1
 448 628 l 1
 448 523 l 1
EndSplineSet
EndChar

StartChar: eight
Encoding: 26 56 90
Width: 492
GlyphClass: 2
Flags: W
HStem: -12 81<177.807 313.3> 292 82<184.83 308.055> 558 82<182.651 310.036>
VStem: 34 105<110.795 251.29> 48 105<405.675 527.727> 340 105<404.987 529.67> 353 106<109.861 248.752>
LayerCount: 2
Fore
SplineSet
353 182 m 0xf2
 353 244 315 292 246 292 c 0
 179 292 139 243 139 182 c 0
 139 118 175 69 246 69 c 0
 320 69 353 120 353 182 c 0xf2
340 466 m 0xec
 340 524 304 558 246 558 c 0
 189 558 153 524 153 466 c 0
 153 409 194 374 246 374 c 0
 299 374 340 409 340 466 c 0xec
459 161 m 0xe2
 459 32 346 -12 246 -12 c 0
 143 -12 34 34 34 161 c 0xf2
 34 261 95 311 152 334 c 1
 100 355 48 398 48 482 c 0
 48 597 152 640 246 640 c 0
 341 640 445 599 445 480 c 0xec
 445 402 388 355 334 334 c 1
 389 315 459 263 459 161 c 0xe2
EndSplineSet
EndChar

StartChar: nine
Encoding: 27 57 91
Width: 492
GlyphClass: 2
Flags: W
HStem: -13 81<176.526 288.788> 233 76<174.794 299.108> 558 82<175.729 304.729>
VStem: 35 107<343.705 523.676> 49 103<91.3129 152> 338 119<248.117 512.903> 354 103<161.234 310>
LayerCount: 2
Fore
SplineSet
338 434 m 0xf4
 338 515 309 558 239 558 c 0
 171 558 142 515 142 434 c 0
 142 353 171 309 239 309 c 0
 309 309 338 353 338 434 c 0xf4
457 335 m 0
 457 174 416 -13 233 -13 c 0
 130 -13 56 51 49 152 c 1
 152 152 l 1
 154 94 187 68 233 68 c 0
 337 68 354 233 354 310 c 1xea
 325 261 278 233 212 233 c 0
 70 233 35 351 35 427 c 0
 35 522 87 640 242 640 c 0
 428 640 457 505 457 335 c 0
EndSplineSet
EndChar

StartChar: colon
Encoding: 28 58 92
Width: 226
GlyphClass: 2
Flags: W
HStem: -19 144<61.5 164.75> 307 144<61.5 164.75>
VStem: 39 148<4.00599 102.767 329.233 428.767>
LayerCount: 2
Fore
SplineSet
187 53 m 0
 187 15 152 -19 114 -19 c 0
 74 -19 39 15 39 53 c 0
 39 93 74 125 114 125 c 0
 152 125 187 93 187 53 c 0
187 379 m 0
 187 339 152 307 114 307 c 0
 74 307 39 339 39 379 c 0
 39 419 74 451 114 451 c 0
 152 451 187 419 187 379 c 0
EndSplineSet
EndChar

StartChar: semicolon
Encoding: 29 59 93
Width: 230
GlyphClass: 2
Flags: W
HStem: -5 131<61.3455 128.052> 307 144<61.5 164.75>
VStem: 39 145<16.974 102.333 329.757 428.904> 130 54<-38.4217 68.5>
LayerCount: 2
Fore
SplineSet
184 48 m 0xe0
 184 -27 135 -93 92 -121 c 1
 87 -117 83 -113 78 -109 c 1
 105 -89 130 -48 130 2 c 0xd0
 130 6 130 11 129 15 c 1
 109 6 75 -5 65 -5 c 0
 54 -5 39 15 39 52 c 0
 39 91 72 126 109 126 c 0
 153 126 184 89 184 48 c 0xe0
187 380 m 0
 187 340 152 307 114 307 c 0
 74 307 39 340 39 380 c 0xe0
 39 419 74 451 114 451 c 0
 152 451 187 419 187 380 c 0
EndSplineSet
EndChar

StartChar: less
Encoding: 30 60 94
Width: 870
GlyphClass: 2
Flags: W
DStem2: 174 288 270 261 0.934175 0.356815<80.0468 533.448> 270 261 174 232 0.934175 -0.356815<0 453.758>
LayerCount: 2
Fore
SplineSet
695 102 m 1
 695 33 l 1
 174 232 l 1
 174 288 l 1
 695 487 l 1
 695 419 l 1
 270 261 l 1
 695 102 l 1
EndSplineSet
EndChar

StartChar: equal
Encoding: 31 61 95
Width: 569
GlyphClass: 2
Flags: W
HStem: 84 80<39 530> 270 80<39 530>
LayerCount: 2
Fore
SplineSet
530 350 m 1
 530 270 l 1
 39 270 l 1
 39 350 l 1
 530 350 l 1
530 164 m 1
 530 84 l 1
 39 84 l 1
 39 164 l 1
 530 164 l 1
EndSplineSet
EndChar

StartChar: greater
Encoding: 32 62 96
Width: 870
GlyphClass: 2
Flags: W
DStem2: 174 487 174 419 0.934175 -0.356815<24.2634 477.665> 174 102 174 33 0.934175 0.356815<0 453.758>
LayerCount: 2
Fore
SplineSet
695 288 m 1
 695 232 l 1
 174 33 l 1
 174 102 l 1
 599 261 l 1
 174 419 l 1
 174 487 l 1
 695 288 l 1
EndSplineSet
EndChar

StartChar: question
Encoding: 33 63 97
Width: 436
GlyphClass: 2
Flags: W
HStem: -6 119<157.584 247.609> 673 82<144.561 259.998>
VStem: 23 80<540 628.921> 143 119<8.43351 99.5193> 162 80<195 392.254> 302 81<511.598 630.074>
LayerCount: 2
Fore
SplineSet
383 571 m 0xec
 383 422 242 440 242 337 c 2
 242 195 l 1
 162 195 l 1
 162 352 l 2
 162 474 302 469 302 571 c 0
 302 622 254 673 202 673 c 0
 142 673 103 611 103 570 c 2
 103 540 l 1
 23 540 l 1
 23 570 l 2
 23 635 80 755 202 755 c 0
 312 755 383 663 383 571 c 0xec
262 55 m 0xf4
 262 20 233 -6 202 -6 c 0
 170 -6 143 22 143 55 c 0
 143 89 170 113 202 113 c 0
 233 113 262 89 262 55 c 0xf4
EndSplineSet
EndChar

StartChar: at
Encoding: 34 64 98
Width: 887
GlyphClass: 2
Flags: W
HStem: -170 91<327.993 624.038> -151 93<534 627> 14 76<380.809 485.908 633.481 703.563> 358 75<384.46 489.43> 542 89<333.883 579.037>
VStem: 43 102<113.305 350.444> 241 103<129.118 314.526> 528 99<138.554 318.568 376 424> 742 101<144.213 373.895>
LayerCount: 2
Fore
SplineSet
526 230 m 0x3f80
 526 307 497 358 435 358 c 0
 370 358 344 286 344 226 c 0
 344 162 365 90 434 90 c 0
 500 90 526 166 526 230 c 0x3f80
843 263 m 0
 843 141 777 10 662 10 c 0
 605 10 566 37 542 87 c 1
 510 39 471 14 413 14 c 0
 312 14 241 111 241 222 c 0
 241 341 307 433 409 433 c 0
 458 433 493 418 528 376 c 1
 528 424 l 1
 627 424 l 1
 627 134 l 2
 627 102 652 94 670 94 c 0
 703 94 742 142 742 245 c 0
 742 443 629 542 450 542 c 0
 289 542 145 429 145 230 c 0
 145 48 269 -79 444 -79 c 0xbf80
 526 -79 573 -75 627 -58 c 1
 627 -151 l 1x7f80
 554 -167 514 -170 467 -170 c 0xbf80
 244 -170 43 -48 43 236 c 0
 43 479 237 631 450 631 c 0
 678 631 843 492 843 263 c 0
EndSplineSet
EndChar

StartChar: A
Encoding: 35 65 99
Width: 634
GlyphClass: 2
Flags: W
HStem: 0 21G<11 126.682 506.185 624> 151 85<212 418> 508 120<199 432>
DStem2: 11 0 119 0 0.367301 0.930102<39.6686 201.417 293.332 584.151> 372 628 315 508 0.37241 -0.928068<90.1409 380.934 473.599 635.709>
LayerCount: 2
Fore
SplineSet
418 236 m 1
 315 508 l 1
 212 236 l 1
 418 236 l 1
624 0 m 1
 514 0 l 1
 455 151 l 1
 177 151 l 1
 119 0 l 1
 11 0 l 1
 259 628 l 1
 372 628 l 1
 624 0 l 1
EndSplineSet
EndChar

StartChar: B
Encoding: 36 66 100
Width: 586
GlyphClass: 2
Flags: W
HStem: 0 88<173 380.158> 284 84<173 368.646> 540 88<173 370.192>
VStem: 66 107<88 284 368 540> 404 105<400.72 510.161> 426 110<129.788 244.199>
LayerCount: 2
Fore
SplineSet
426 186 m 0xf4
 426 253 367 284 286 284 c 2
 173 284 l 1
 173 88 l 1
 288 88 l 2
 367 88 426 121 426 186 c 0xf4
404 454 m 0xf8
 404 508 363 540 289 540 c 2
 173 540 l 1
 173 368 l 1
 283 368 l 2
 361 368 404 403 404 454 c 0xf8
536 168 m 0xf4
 536 65 429 0 336 0 c 2
 66 0 l 1
 66 628 l 1
 320 628 l 2
 420 628 509 578 509 474 c 0xf8
 509 397 453 352 393 330 c 1
 473 307 536 258 536 168 c 0xf4
EndSplineSet
EndChar

StartChar: C
Encoding: 37 67 101
Width: 612
GlyphClass: 2
Flags: W
HStem: -13 21G<218.5 383> 444 21G<447 557> 555 85<237.396 404.418>
VStem: 49 111<166.299 457.512> 448 114<122.798 189 444 558>
LayerCount: 2
Fore
SplineSet
562 189 m 1
 555 70 450 -13 316 -13 c 0
 121 -13 49 142 49 311 c 0
 49 485 127 640 317 640 c 0
 475 640 550 563 557 444 c 1
 450 444 l 1
 444 517 405 555 317 555 c 0
 207 555 160 469 160 311 c 0
 160 164 201 95 282 79 c 0
 304 74 328 73 352 77 c 1
 412 84 442 129 448 189 c 1
 562 189 l 1
EndSplineSet
EndChar

StartChar: D
Encoding: 38 68 102
Width: 629
GlyphClass: 2
Flags: W
HStem: 0 88<173 364.054> 540 88<173 360.708>
VStem: 66 107<88 540> 472 108<198.528 429.486>
LayerCount: 2
Fore
SplineSet
472 314 m 0
 472 463 395 540 259 540 c 2
 173 540 l 1
 173 88 l 1
 259 88 l 2
 395 88 472 166 472 314 c 0
580 314 m 0
 580 134 472 0 258 0 c 2
 66 0 l 1
 66 628 l 1
 258 628 l 2
 477 628 580 493 580 314 c 0
EndSplineSet
EndChar

StartChar: E
Encoding: 39 69 103
Width: 536
GlyphClass: 2
Flags: W
HStem: 0 88<171 475> 281 84<171 453> 540 88<171 467>
VStem: 66 105<88 281 365 540>
LayerCount: 2
Fore
SplineSet
475 0 m 1
 66 0 l 1
 66 628 l 1
 467 628 l 1
 467 540 l 1
 171 540 l 1
 171 365 l 1
 453 365 l 1
 453 281 l 1
 171 281 l 1
 171 88 l 1
 475 88 l 1
 475 0 l 1
EndSplineSet
EndChar

StartChar: F
Encoding: 40 70 104
Width: 501
GlyphClass: 2
Flags: W
HStem: 0 21G<66 173> 278 87<173 429> 540 88<173 447>
VStem: 66 107<0 278 365 540>
LayerCount: 2
Fore
SplineSet
429 278 m 1
 173 278 l 1
 173 0 l 1
 66 0 l 1
 66 628 l 1
 447 628 l 1
 447 540 l 1
 173 540 l 1
 173 365 l 1
 429 365 l 1
 429 278 l 1
EndSplineSet
EndChar

StartChar: G
Encoding: 41 71 105
Width: 668
GlyphClass: 2
Flags: W
HStem: -13 89<272.949 491.144> 244 90<365 493> 551 89<263.121 445.184>
VStem: 49 111<200.624 435.355> 493 109<87.8801 244 451 510.696>
LayerCount: 2
Fore
SplineSet
602 28 m 1
 516 2 429 -13 375 -13 c 0
 140 -13 49 144 49 323 c 0
 49 502 175 640 360 640 c 0
 523 640 608 553 608 451 c 1
 499 451 l 1
 497 508 440 551 362 551 c 0
 215 551 160 441 160 321 c 0
 160 185 225 76 369 76 c 0
 403 76 448 81 493 93 c 1
 493 244 l 1
 365 244 l 1
 365 334 l 1
 602 334 l 1
 602 28 l 1
EndSplineSet
EndChar

StartChar: H
Encoding: 42 72 106
Width: 619
GlyphClass: 2
Flags: W
HStem: 0 21G<66 171 446 554> 281 87<171 446> 608 20G<66 171 446 554>
VStem: 66 105<0 281 368 628> 446 108<0 281 368 628>
LayerCount: 2
Fore
SplineSet
554 0 m 1
 446 0 l 1
 446 281 l 1
 171 281 l 1
 171 0 l 1
 66 0 l 1
 66 628 l 1
 171 628 l 1
 171 368 l 1
 446 368 l 1
 446 628 l 1
 554 628 l 1
 554 0 l 1
EndSplineSet
EndChar

StartChar: I
Encoding: 43 73 107
Width: 239
GlyphClass: 2
Flags: W
HStem: 0 21G<66 173> 608 20G<66 173>
VStem: 66 107<0 628>
LayerCount: 2
Fore
SplineSet
173 0 m 1
 66 0 l 1
 66 628 l 1
 173 628 l 1
 173 0 l 1
EndSplineSet
EndChar

StartChar: J
Encoding: 44 74 108
Width: 520
GlyphClass: 2
Flags: W
HStem: -13 89<187.835 312.55> 609 20G<345 454>
VStem: 49 109<105.127 182> 345 109<108.875 629>
LayerCount: 2
Fore
SplineSet
454 186 m 2
 454 64 359 -13 247 -13 c 0
 113 -13 49 61 49 182 c 1
 158 182 l 1
 159 105 195 76 247 76 c 0
 309 76 345 111 345 190 c 2
 345 629 l 1
 454 629 l 1
 454 186 l 2
EndSplineSet
EndChar

StartChar: K
Encoding: 45 75 109
Width: 591
GlyphClass: 2
Flags: W
HStem: 0 21G<66 173 412.161 565> 608 20G<66 173 389.602 536>
VStem: 66 107<0 322 359 628> 407 129<499 628> 428 137<0 137>
DStem2: 173 359 292 352 0.66234 0.749204<73.574 356.523> 292 352 173 322 0.612852 -0.790198<0 361.497>
LayerCount: 2
Fore
SplineSet
565 0 m 1xe8
 428 0 l 1xe8
 173 322 l 1
 173 0 l 1
 66 0 l 1
 66 628 l 1
 173 628 l 1
 173 359 l 1
 407 628 l 1
 536 628 l 1xf0
 292 352 l 1
 565 0 l 1xe8
EndSplineSet
EndChar

StartChar: L
Encoding: 46 76 110
Width: 478
GlyphClass: 2
Flags: W
HStem: 0 88<173 455> 608 20G<66 173>
VStem: 66 107<88 628>
LayerCount: 2
Fore
SplineSet
455 0 m 1
 66 0 l 1
 66 628 l 1
 173 628 l 1
 173 88 l 1
 455 88 l 1
 455 0 l 1
EndSplineSet
EndChar

StartChar: M
Encoding: 47 77 111
Width: 794
GlyphClass: 2
Flags: W
HStem: 0 21G<66 169 340.283 451.717 624 729> 608 21G<66 245.57 548.444 729>
VStem: 66 103<0 530> 624 105<0 533>
DStem2: 239 628 169 530 0.318373 -0.947965<70.6145 506.274> 397 147 445 0 0.318361 0.947969<0 438.184>
LayerCount: 2
Fore
SplineSet
729 0 m 1
 624 0 l 1
 624 533 l 1
 445 0 l 1
 347 0 l 1
 169 530 l 1
 169 0 l 1
 66 0 l 1
 66 628 l 1
 239 628 l 1
 397 147 l 1
 555 629 l 1
 729 629 l 1
 729 0 l 1
EndSplineSet
EndChar

StartChar: N
Encoding: 48 78 112
Width: 648
GlyphClass: 2
Flags: W
HStem: 0 21G<66 169 418.764 583> 608 20G<66 228.216 478 583>
VStem: 66 103<0 508> 478 105<119 628>
DStem2: 218 628 169 508 0.454895 -0.890545<84.5755 571.56>
LayerCount: 2
Fore
SplineSet
583 0 m 1
 429 0 l 1
 169 508 l 1
 169 0 l 1
 66 0 l 1
 66 628 l 1
 218 628 l 1
 478 119 l 1
 478 628 l 1
 583 628 l 1
 583 0 l 1
EndSplineSet
EndChar

StartChar: O
Encoding: 49 79 113
Width: 681
GlyphClass: 2
Flags: W
HStem: -13 89<254.891 426.322> 551 89<249.871 432.878>
VStem: 49 112<184.96 449.035> 520 112<183.886 451.341>
LayerCount: 2
Fore
SplineSet
520 320 m 0
 520 461 472 551 341 551 c 0
 210 551 161 461 161 320 c 0
 161 178 210 76 341 76 c 0
 472 76 520 178 520 320 c 0
632 320 m 0
 632 135 533 -13 341 -13 c 0
 145 -13 49 140 49 320 c 0
 49 504 150 640 341 640 c 0
 537 640 632 498 632 320 c 0
EndSplineSet
EndChar

StartChar: P
Encoding: 50 80 114
Width: 556
GlyphClass: 2
Flags: W
HStem: 0 21G<66 173> 252 88<173 358.376> 540 88<173 355.234>
VStem: 66 107<0 252 340 540> 399 106<376.828 502.019>
LayerCount: 2
Fore
SplineSet
399 439 m 0
 399 514 346 540 251 540 c 2
 173 540 l 1
 173 340 l 1
 251 340 l 2
 343 340 399 364 399 439 c 0
505 439 m 0
 505 290 385 252 265 252 c 2
 173 252 l 1
 173 0 l 1
 66 0 l 1
 66 628 l 1
 265 628 l 2
 390 628 505 585 505 439 c 0
EndSplineSet
EndChar

StartChar: Q
Encoding: 51 81 115
Width: 705
GlyphClass: 2
Flags: W
HStem: -13 89<254.724 429.814> 0 81<341.992 436.642 548 675> 551 89<249.694 432.878>
VStem: 49 112<185.175 449.035> 520 112<185.203 451.341>
LayerCount: 2
Fore
SplineSet
520 320 m 0xb8
 520 461 472 551 341 551 c 0
 210 551 161 461 161 320 c 0
 161 178 210 76 341 76 c 0
 472 76 520 178 520 320 c 0xb8
675 0 m 1x78
 445 0 l 1x78
 394 -9 362 -13 341 -13 c 0xb8
 144 -13 49 141 49 320 c 0
 49 504 149 640 341 640 c 0
 537 640 632 498 632 320 c 0
 632 223 603 137 548 81 c 1
 675 81 l 1
 675 0 l 1x78
EndSplineSet
EndChar

StartChar: R
Encoding: 52 82 116
Width: 570
GlyphClass: 2
Flags: W
HStem: 0 21G<66 173 402 536> 270 87<173 358.625> 540 88<173 371.021>
VStem: 66 107<0 270 357 540> 411 109<393.135 504.881> 425 111<0 74.4052>
LayerCount: 2
Fore
SplineSet
411 447 m 0xf8
 411 514 353 540 286 540 c 2
 173 540 l 1
 173 357 l 1
 281 357 l 2
 348 357 411 385 411 447 c 0xf8
536 0 m 1xf4
 425 0 l 1xf4
 379 171 404 264 304 269 c 0
 285 270 263 270 239 270 c 2
 173 270 l 1
 173 0 l 1
 66 0 l 1
 66 628 l 1
 286 628 l 2
 441 628 520 578 520 457 c 0xf8
 520 386 457 343 395 316 c 1
 434 307 466 292 483 252 c 1
 504 198 505 73 536 0 c 1xf4
EndSplineSet
EndChar

StartChar: S
Encoding: 53 83 117
Width: 584
GlyphClass: 2
Flags: W
HStem: -13 89<204.715 384.319> 554 86<207.031 368.038>
VStem: 49 111<120.526 192> 62 106<415.271 517.732> 403 110<461 520.308> 428 106<114.617 221.032>
LayerCount: 2
Fore
SplineSet
534 178 m 0xd4
 534 39 394 -13 279 -13 c 0
 153 -13 49 61 49 192 c 1
 160 192 l 1
 161 118 208 76 280 76 c 0
 341 76 428 92 428 169 c 0xe4
 428 334 62 215 62 457 c 0
 62 574 185 640 287 640 c 0
 405 640 513 589 513 461 c 1
 403 461 l 1xd8
 403 532 346 554 286 554 c 0
 228 554 168 527 168 463 c 0
 168 319 534 414 534 178 c 0xd4
EndSplineSet
EndChar

StartChar: T
Encoding: 54 84 118
Width: 543
GlyphClass: 2
Flags: W
HStem: 0 21G<217 326> 540 88<22 217 326 521>
VStem: 217 109<0 540>
LayerCount: 2
Fore
SplineSet
521 540 m 1
 326 540 l 1
 326 0 l 1
 217 0 l 1
 217 540 l 1
 22 540 l 1
 22 628 l 1
 521 628 l 1
 521 540 l 1
EndSplineSet
EndChar

StartChar: U
Encoding: 55 85 119
Width: 648
GlyphClass: 2
Flags: W
HStem: -13 89<237.902 408.745> 608 20G<66 173 475 584>
VStem: 66 107<147.312 628> 475 109<151.891 628>
LayerCount: 2
Fore
SplineSet
584 269 m 2
 584 80 488 -13 321 -13 c 0
 148 -13 66 85 66 269 c 2
 66 628 l 1
 173 628 l 1
 173 269 l 2
 173 118 233 76 323 76 c 0
 412 76 475 117 475 269 c 2
 475 628 l 1
 584 628 l 1
 584 269 l 2
EndSplineSet
EndChar

StartChar: V
Encoding: 56 86 120
Width: 605
GlyphClass: 2
Flags: W
HStem: 0 21G<229.803 370.357> 608 20G<11 135.92 469.04 594>
DStem2: 129 628 11 628 0.338613 -0.940926<0 529.043> 302 128 363 0 0.345221 0.938522<0 529.329>
LayerCount: 2
Fore
SplineSet
594 628 m 1
 363 0 l 1
 237 0 l 1
 11 628 l 1
 129 628 l 1
 302 128 l 1
 476 628 l 1
 594 628 l 1
EndSplineSet
EndChar

StartChar: W
Encoding: 57 87 121
Width: 857
GlyphClass: 2
Flags: W
HStem: 0 21G<176.554 299.403 555.637 680.446> 608 20G<11 130.701 362.722 494.237 725.299 846>
VStem: 11 115<513 628> 730 116<512 628>
DStem2: 240 143 294 0 0.260811 0.96539<0 389.815> 489 628 428 496 0.258996 -0.965878<111.697 501.344>
LayerCount: 2
Fore
SplineSet
846 628 m 1
 675 0 l 1
 561 0 l 1
 428 496 l 1
 294 0 l 1
 182 0 l 1
 11 628 l 1
 126 628 l 1
 240 143 l 1
 368 628 l 1
 489 628 l 1
 616 143 l 1
 730 628 l 1
 846 628 l 1
EndSplineSet
EndChar

StartChar: X
Encoding: 58 88 122
Width: 608
GlyphClass: 2
Flags: W
HStem: 0 21G<15 143.863 448.902 591> 608 20G<39 180.793 436.477 568>
VStem: 15 116<0 116> 39 129<499 628> 449 119<509 628> 462 129<0 129>
DStem2: 15 0 131 0 0.568529 0.822664<65.9493 65.9493 501.717 763.374> 168 628 39 628 0.558656 -0.829399<0 263.456 380.315 685.108>
LayerCount: 2
Fore
SplineSet
591 0 m 1xc4
 462 0 l 1
 295 255 l 1
 131 0 l 1
 15 0 l 1xe4
 239 330 l 1
 39 628 l 1
 168 628 l 1
 310 406 l 1
 449 628 l 1
 568 628 l 1xd8
 365 330 l 1
 591 0 l 1xc4
EndSplineSet
EndChar

StartChar: Y
Encoding: 59 89 123
Width: 574
GlyphClass: 2
Flags: W
HStem: 0 21G<233 341> 608 20G<11 146.813 430.258 562>
VStem: 233 108<0 243>
DStem2: 136 628 11 628 0.499528 -0.866298<0 321.59> 289 345 341 243 0.497836 0.867271<0 321.109>
LayerCount: 2
Fore
SplineSet
562 628 m 1
 341 243 l 1
 341 0 l 1
 233 0 l 1
 233 243 l 1
 11 628 l 1
 136 628 l 1
 289 345 l 1
 441 628 l 1
 562 628 l 1
EndSplineSet
EndChar

StartChar: Z
Encoding: 60 90 124
Width: 543
GlyphClass: 2
Flags: W
HStem: 0 88<161 503> 540 88<57 373>
DStem2: 39 101 161 88 0.605497 0.795848<63.5246 551.613>
LayerCount: 2
Fore
SplineSet
503 0 m 1
 39 0 l 1
 39 101 l 1
 373 540 l 1
 57 540 l 1
 57 628 l 1
 496 628 l 1
 496 525 l 1
 161 88 l 1
 503 88 l 1
 503 0 l 1
EndSplineSet
EndChar

StartChar: bracketleft
Encoding: 61 91 125
Width: 342
GlyphClass: 2
Flags: W
HStem: -173 61<172 260> 566 62<172 260>
VStem: 81 179<-173 -112 566 628> 81 91<-112 566>
LayerCount: 2
Fore
SplineSet
260 -173 m 1xe0
 81 -173 l 1
 81 628 l 1
 260 628 l 1
 260 566 l 1xe0
 172 566 l 1
 172 -112 l 1xd0
 260 -112 l 1
 260 -173 l 1xe0
EndSplineSet
EndChar

StartChar: backslash
Encoding: 62 92 126
Width: 514
GlyphClass: 2
Flags: W
DStem2: 116 803 54 743 0.330907 -0.943663<36.1035 1043.53>
LayerCount: 2
Fore
SplineSet
459 -176 m 1
 439 -197 419 -218 398 -238 c 1
 54 743 l 1
 116 803 l 1
 459 -176 l 1
EndSplineSet
EndChar

StartChar: bracketright
Encoding: 63 93 127
Width: 342
GlyphClass: 2
Flags: W
HStem: -173 61<81 171> 566 62<81 171>
VStem: 81 179<-173 -112 566 628> 171 89<-112 566>
LayerCount: 2
Fore
SplineSet
260 -173 m 1xe0
 81 -173 l 1
 81 -112 l 1xe0
 171 -112 l 1
 171 566 l 1xd0
 81 566 l 1
 81 628 l 1
 260 628 l 1
 260 -173 l 1xe0
EndSplineSet
EndChar

StartChar: asciicircum
Encoding: 64 94 128
Width: 502
GlyphClass: 2
Flags: W
HStem: 566 269
DStem2: 27 610 70 566 0.70553 0.70868<0 254.419> 251 835 251 746 0.707107 -0.707107<62.9325 318.198>
LayerCount: 2
Fore
SplineSet
476 610 m 1
 432 566 l 1
 251 746 l 1
 70 566 l 1
 27 610 l 1
 251 835 l 1
 326 760 401 685 476 610 c 1
EndSplineSet
EndChar

StartChar: underscore
Encoding: 65 95 129
Width: 562
GlyphClass: 2
Flags: W
HStem: -165 81<0 562>
LayerCount: 2
Fore
SplineSet
562 -165 m 1
 0 -165 l 1
 0 -84 l 1
 562 -84 l 1
 562 -165 l 1
EndSplineSet
EndChar

StartChar: grave
Encoding: 66 96 130
Width: 209
GlyphClass: 2
Flags: W
HStem: 521 153
VStem: -22 183
LayerCount: 2
Fore
SplineSet
161 521 m 5
 104 521 l 5
 -22 674 l 5
 78 674 l 5
 161 521 l 5
EndSplineSet
EndChar

StartChar: a
Encoding: 67 97 131
Width: 479
GlyphClass: 2
Flags: W
HStem: -12 68<161.18 277.297> 0 21G<340 434> 217 61<184.703 323.479> 382 63<177.909 304.556>
VStem: 40 100<77.164 179.062> 61 98<315 360.789> 324 97<99.5699 216.444 278 362.68>
LayerCount: 2
Fore
SplineSet
324 215 m 1xba
 313 216 295 217 281 217 c 0
 215 217 140 193 140 126 c 0
 140 85 174 56 217 56 c 0
 309 56 324 130 324 215 c 1xba
434 0 m 1x76
 342 0 l 1x76
 338 16 333 39 330 56 c 1
 284 7 253 -12 198 -12 c 0
 119 -12 40 34 40 117 c 0xba
 40 245 161 278 262 278 c 2
 324 278 l 1
 328 340 314 382 241 382 c 0
 193 382 163 362 159 315 c 1
 61 315 l 1
 61 406 140 445 241 445 c 0
 304 445 390 431 412 365 c 0
 419 345 421 302 421 259 c 2
 421 157 l 2
 421 107 423 33 434 0 c 1x76
EndSplineSet
EndChar

StartChar: b
Encoding: 68 98 132
Width: 523
GlyphClass: 2
Flags: W
HStem: -12 68<205.624 327.822> 0 21G<58 156> 384 61<204.256 327.401> 608 20G<58 155>
VStem: 58 97<0 50 113.885 326.335 385 628> 381 101<118.633 323.366>
LayerCount: 2
Fore
SplineSet
381 219 m 0xbc
 381 294 353 384 267 384 c 0
 191 384 155 315 155 221 c 0
 155 132 188 56 267 56 c 0
 340 56 381 129 381 219 c 0xbc
482 223 m 0
 482 76 394 -12 289 -12 c 0xbc
 228 -12 182 15 156 50 c 1
 156 0 l 1
 58 0 l 1x7c
 58 628 l 1
 155 628 l 1
 155 385 l 1
 179 416 220 445 293 445 c 0
 441 445 482 312 482 223 c 0
EndSplineSet
EndChar

StartChar: c
Encoding: 69 99 133
Width: 450
GlyphClass: 2
Flags: W
HStem: -12 66<170.831 286.714> 380 65<173.059 288.915>
VStem: 41 94<93.7468 337.233> 313 97<82.1764 152 290 355.562>
LayerCount: 2
Fore
SplineSet
410 152 m 1
 410 56 359 -12 233 -12 c 0
 104 -12 41 63 41 214 c 0
 41 366 103 445 229 445 c 0
 355 445 412 388 408 290 c 1
 312 290 l 1
 315 355 274 380 229 380 c 0
 170 380 135 340 135 216 c 0
 135 97 164 54 231 54 c 0
 296 54 312 108 313 152 c 1
 410 152 l 1
EndSplineSet
EndChar

StartChar: d
Encoding: 70 100 134
Width: 523
GlyphClass: 2
Flags: W
HStem: -12 70<194.734 313.083> 0 21G<366 464> 383 62<192.641 311.781> 608 20G<366 464>
VStem: 41 98<122.588 320.024> 366 98<0 55 120.104 317.979 387 628>
LayerCount: 2
Fore
SplineSet
366 214 m 0xbc
 366 314 322 383 250 383 c 0
 166 383 139 287 139 215 c 0
 139 137 179 58 254 58 c 0
 334 58 366 148 366 214 c 0xbc
464 0 m 1x7c
 366 0 l 1x7c
 366 55 l 1
 335 16 292 -12 243 -12 c 0xbc
 125 -12 41 87 41 210 c 0
 41 336 101 445 227 445 c 0
 286 445 332 429 366 387 c 1
 366 628 l 1
 464 628 l 1
 464 0 l 1x7c
EndSplineSet
EndChar

StartChar: e
Encoding: 71 101 135
Width: 482
GlyphClass: 2
Flags: W
HStem: -12 65<181.419 303.964> 199 66<143 336.246> 382 63<182.743 306.257>
VStem: 41 102<103.512 199 265 327.554> 334 101<36 137>
LayerCount: 2
Fore
SplineSet
336 265 m 1
 340 331 315 382 241 382 c 0
 172 382 147 325 143 265 c 1
 336 265 l 1
435 137 m 1
 424 52 364 -12 240 -12 c 0
 94 -12 41 103 41 216 c 0
 41 337 101 445 247 445 c 0
 403 445 441 327 441 236 c 0
 441 224 440 211 438 199 c 1
 143 199 l 1
 143 113 165 53 243 53 c 0
 303 53 329 93 334 137 c 1
 435 137 l 1
EndSplineSet
EndChar

StartChar: f
Encoding: 72 102 136
Width: 298
GlyphClass: 2
Flags: W
HStem: 0 21G<90 189> 369 66<9 90 189 287> 568 70<199.03 297.016>
VStem: 90 99<0 369 435 555.905>
LayerCount: 2
Fore
SplineSet
298 556 m 1
 283 563 267 568 249 568 c 0
 205 568 189 548 189 498 c 2
 189 435 l 1
 287 435 l 1
 287 369 l 1
 189 369 l 1
 189 0 l 1
 90 0 l 1
 90 369 l 1
 9 369 l 1
 9 435 l 1
 90 435 l 1
 90 501 l 2
 90 605 136 638 223 638 c 0
 246 638 271 634 298 626 c 1
 298 556 l 1
EndSplineSet
EndChar

StartChar: g
Encoding: 73 103 137
Width: 523
GlyphClass: 2
Flags: W
HStem: -173 64<186.999 326.657> 6 67<187.376 313.334> 382 63<189.104 318.39> 415 20G<365 464>
VStem: 41 98<125.718 323.58> 63 100<-85.9104 -41> 365 99<-62.8906 76 125.9 331.032 391 435>
LayerCount: 2
Fore
SplineSet
366 222 m 0xea
 366 321 331 382 252 382 c 0
 165 382 139 297 139 221 c 0
 139 138 175 73 252 73 c 0
 335 73 366 150 366 222 c 0xea
464 14 m 2
 464 -99 388 -173 250 -173 c 0
 100 -173 63 -92 63 -41 c 1
 163 -41 l 1xd6
 163 -85 206 -109 258 -109 c 0
 338 -109 365 -66 365 76 c 1
 335 31 285 6 237 6 c 0
 113 6 41 85 41 221 c 0
 41 356 116 445 229 445 c 0xea
 295 445 335 429 365 391 c 1
 365 435 l 1
 464 435 l 1xda
 464 14 l 2
EndSplineSet
EndChar

StartChar: h
Encoding: 74 104 138
Width: 508
GlyphClass: 2
Flags: W
HStem: 0 21G<58 156 351 450> 383 62<202.689 320.359> 608 20G<58 156>
VStem: 58 98<0 336.607 384 628> 351 99<0 350.923>
LayerCount: 2
Fore
SplineSet
450 0 m 1
 351 0 l 1
 351 267 l 2
 351 346 316 383 267 383 c 0
 195 383 156 318 156 274 c 2
 156 0 l 1
 58 0 l 1
 58 628 l 1
 156 628 l 1
 156 384 l 1
 185 424 228 445 295 445 c 0
 403 445 450 386 450 283 c 2
 450 0 l 1
EndSplineSet
EndChar

StartChar: i
Encoding: 75 105 139
Width: 278
GlyphClass: 2
Flags: W
HStem: 0 21G<120 219> 415 20G<120 219> 531 97<115 224>
VStem: 120 99<0 435 531 628>
LayerCount: 2
Fore
SplineSet
120 0 m 13
 120 435 l 5
 219 435 l 5
 219 0 l 21
 120 0 l 13
224 628 m 5
 224 531 l 5
 115 531 l 5
 115 628 l 5
 224 628 l 5
EndSplineSet
EndChar

StartChar: j
Encoding: 76 106 140
Width: 278
GlyphClass: 2
Flags: W
HStem: 415 20G<120 219> 531 97<115 224>
VStem: 120 99<-92.9863 435 531 628>
LayerCount: 2
Fore
SplineSet
219 -70 m 6
 219 -133 179 -184 98 -184 c 4
 60 -184 10 -169 -22 -140 c 5
 29 -78 l 5
 46 -95 69 -106 97 -95 c 5
 115 -91 120 -74 120 -44 c 6
 120 435 l 5
 219 435 l 5
 219 -70 l 6
224 628 m 5
 224 531 l 5
 115 531 l 5
 115 628 l 5
 224 628 l 5
EndSplineSet
EndChar

StartChar: k
Encoding: 77 107 141
Width: 456
GlyphClass: 2
Flags: W
HStem: 0 21G<58 156 302.939 441> 415 20G<290.921 426> 608 20G<58 156>
VStem: 58 98<0 229 257 628> 308 118<317 435> 317 124<0 124>
DStem2: 156 257 261 246 0.657658 0.753317<60.7676 234.054> 261 246 156 229 0.59051 -0.80703<0 231.598>
LayerCount: 2
Fore
SplineSet
441 0 m 1xf4
 317 0 l 1xf4
 156 229 l 1
 156 0 l 1
 58 0 l 1
 58 628 l 1
 156 628 l 1
 156 257 l 1
 308 435 l 1
 426 435 l 1xf8
 371 372 316 309 261 246 c 1
 321 164 381 82 441 0 c 1xf4
EndSplineSet
EndChar

StartChar: l
Encoding: 78 108 142
Width: 214
GlyphClass: 2
Flags: W
HStem: 0 21G<58 156> 608 20G<58 156>
VStem: 58 98<0 628>
LayerCount: 2
Fore
SplineSet
156 0 m 1
 58 0 l 1
 58 628 l 1
 156 628 l 1
 156 0 l 1
EndSplineSet
EndChar

StartChar: m
Encoding: 79 109 143
Width: 786
GlyphClass: 2
Flags: W
HStem: 0 21G<58 156 345 443 629 727> 382 63<207.322 312.494 487.706 599.422> 415 20G<58 156>
VStem: 58 98<0 333.946 374 435> 345 98<0 334.362> 629 98<0 349.978>
LayerCount: 2
Fore
SplineSet
727 0 m 1xdc
 629 0 l 1
 629 279 l 2
 629 338 598 382 543 382 c 0
 486 382 443 321 443 269 c 2
 443 0 l 1
 345 0 l 1
 345 279 l 2
 345 333 312 382 260 382 c 0xdc
 196 382 156 316 156 266 c 2
 156 0 l 1
 58 0 l 1
 58 435 l 1
 156 435 l 1xbc
 156 374 l 1
 190 422 230 445 289 445 c 0
 363 445 399 424 429 367 c 1
 471 427 511 445 573 445 c 0
 693 445 727 365 727 283 c 2
 727 0 l 1xdc
EndSplineSet
EndChar

StartChar: n
Encoding: 80 110 144
Width: 509
GlyphClass: 2
Flags: W
HStem: 0 21G<52 150 346 444> 385 60<193.361 312.396> 415 20G<52 150>
VStem: 52 98<0 339.503 380 435> 346 98<0 349.364>
LayerCount: 2
Fore
SplineSet
444 0 m 1xd8
 346 0 l 1
 346 274 l 2
 346 342 309 385 254 385 c 0xd8
 194 385 150 335 150 259 c 2
 150 0 l 1
 52 0 l 1
 52 435 l 1
 150 435 l 1xb8
 150 380 l 1
 180 425 218 445 288 445 c 0
 396 445 444 384 444 290 c 2
 444 0 l 1xd8
EndSplineSet
EndChar

StartChar: o
Encoding: 81 111 145
Width: 520
GlyphClass: 2
Flags: W
HStem: -12 65<196.252 326.559> 381 64<194.154 324.493>
VStem: 41 99<116.038 318.519> 379 100<114.759 318.297>
LayerCount: 2
Fore
SplineSet
379 217 m 0
 379 309 341 381 261 381 c 0
 179 381 140 307 140 217 c 0
 140 127 179 53 261 53 c 0
 341 53 379 124 379 217 c 0
479 217 m 0
 479 72 384 -12 261 -12 c 0
 133 -12 41 75 41 217 c 0
 41 362 136 445 261 445 c 0
 387 445 479 359 479 217 c 0
EndSplineSet
EndChar

StartChar: p
Encoding: 82 112 146
Width: 527
GlyphClass: 2
Flags: W
HStem: -173 21G<58 156> -13 66<203.997 330.268> 380 65<210.504 333.135> 415 20G<58 156>
VStem: 58 98<-173 42 107.226 320.785 377 435> 386 100<118.505 319.617>
LayerCount: 2
Fore
SplineSet
386 220 m 0xec
 386 298 353 380 270 380 c 0
 185 380 156 292 156 218 c 0
 156 120 189 53 268 53 c 0
 355 53 386 143 386 220 c 0xec
486 220 m 0
 486 82 421 -13 288 -13 c 0
 230 -13 195 8 156 42 c 1
 156 -173 l 1
 58 -173 l 1
 58 435 l 1
 156 435 l 1xdc
 156 377 l 1
 195 420 234 445 284 445 c 0
 423 445 486 347 486 220 c 0
EndSplineSet
EndChar

StartChar: q
Encoding: 83 113 147
Width: 527
GlyphClass: 2
Flags: W
HStem: -173 21G<369 468> -13 66<195.789 322.643> 380 65<193.917 317.98> 415 20G<369 468>
VStem: 41 99<117.896 319.225> 369 99<-173 42 104.33 321.579 377 435>
LayerCount: 2
Fore
SplineSet
371 218 m 0xec
 371 294 339 380 257 380 c 0
 172 380 140 295 140 220 c 0
 140 140 172 53 259 53 c 0
 337 53 371 120 371 218 c 0xec
468 -173 m 1
 369 -173 l 1
 369 42 l 1
 329 8 296 -13 237 -13 c 0
 105 -13 41 82 41 220 c 0
 41 348 104 445 241 445 c 0xec
 296 445 335 420 369 377 c 1
 369 435 l 1
 468 435 l 1xdc
 468 -173 l 1
EndSplineSet
EndChar

StartChar: r
Encoding: 84 114 148
Width: 326
GlyphClass: 2
Flags: W
HStem: 0 21G<58 156> 355 85<209.288 310>
VStem: 58 98<0 305.879 371 435>
LayerCount: 2
Fore
SplineSet
310 355 m 1
 205 355 156 311 156 233 c 2
 156 0 l 1
 58 0 l 1
 58 435 l 1
 156 435 l 1
 156 371 l 1
 182 419 212 440 310 440 c 1
 310 355 l 1
EndSplineSet
EndChar

StartChar: s
Encoding: 85 115 149
Width: 444
GlyphClass: 2
Flags: W
HStem: -12 65<158.844 285.534> 382 63<163.394 277.987>
VStem: 41 98<70.9315 130> 52 96<289.772 365.858> 293 98<312 367.962> 306 97<73.9939 159.203>
LayerCount: 2
Fore
SplineSet
403 131 m 0xd4
 403 25 306 -12 212 -12 c 0
 116 -12 41 26 41 130 c 1
 139 130 l 1
 141 72 171 53 222 53 c 0
 264 53 306 76 306 120 c 0xe4
 306 221 52 147 52 321 c 0
 52 388 106 445 222 445 c 0
 326 445 391 411 391 312 c 1
 293 312 l 1xd8
 293 351 280 382 218 382 c 0
 178 382 148 356 148 323 c 0
 148 233 403 298 403 131 c 0xd4
EndSplineSet
EndChar

StartChar: t
Encoding: 86 116 150
Width: 334
GlyphClass: 2
Flags: W
HStem: -12 71<216.029 309.085> 369 66<25 108 206 306>
VStem: 108 98<69.4484 369 435 514>
LayerCount: 2
Fore
SplineSet
310 2 m 1
 285 -7 259 -12 233 -12 c 0
 160 -12 108 24 108 109 c 2
 108 369 l 1
 25 369 l 1
 25 435 l 1
 108 435 l 1
 108 511 l 1
 140 527 173 543 206 558 c 1
 206 435 l 1
 306 435 l 1
 306 369 l 1
 206 369 l 1
 206 126 l 2
 206 76 226 59 264 59 c 0
 280 59 296 61 310 66 c 1
 310 2 l 1
EndSplineSet
EndChar

StartChar: u
Encoding: 87 117 151
Width: 508
GlyphClass: 2
Flags: W
HStem: 0 21G<351 450> 415 20G<58 156 351 450>
VStem: 58 98<86.7258 435> 351 99<0 57 92.3791 435>
LayerCount: 2
Fore
SplineSet
450 0 m 1
 351 0 l 1
 351 57 l 1
 328 20 297 -5 245 -9 c 0
 124 -21 58 32 58 143 c 2
 58 435 l 1
 156 435 l 1
 156 160 l 2
 156 91 194 50 247 50 c 0
 309 50 351 94 351 173 c 2
 351 435 l 1
 450 435 l 1
 450 0 l 1
EndSplineSet
EndChar

StartChar: v
Encoding: 88 118 152
Width: 469
GlyphClass: 2
Flags: W
HStem: 0 21G<174.138 294.862> 415 20G<11 126.329 345.795 458>
DStem2: 119 435 11 435 0.365851 -0.930673<0 342.847> 237 113 287 0 0.365851 0.930673<0 342.116>
LayerCount: 2
Fore
SplineSet
458 435 m 1
 287 0 l 1
 182 0 l 1
 11 435 l 1
 119 435 l 1
 237 113 l 1
 353 435 l 1
 458 435 l 1
EndSplineSet
EndChar

StartChar: w
Encoding: 89 119 153
Width: 726
GlyphClass: 2
Flags: W
HStem: 0 21G<143.609 265.265 460.735 599> 332 103<303 422>
VStem: 11 102<333 435> 613 101<334 435>
DStem2: 113 435 11 435 0.304378 -0.952551<0 327.408> 206 121 259 0 0.29893 0.954275<0 248.284> 422 435 363 332 0.29893 -0.954275<80.6535 328.639> 519 121 576 0 0.30239 0.953184<0 327.725>
LayerCount: 2
Fore
SplineSet
714 435 m 1
 668 290 622 145 576 0 c 1
 467 0 l 1
 363 332 l 1
 259 0 l 1
 150 0 l 1
 11 435 l 1
 113 435 l 1
 206 121 l 1
 303 435 l 1
 422 435 l 1
 519 121 l 1
 613 435 l 1
 714 435 l 1
EndSplineSet
EndChar

StartChar: x
Encoding: 90 120 154
Width: 476
GlyphClass: 2
Flags: W
HStem: 0 21G<13 136.129 329.135 462> 415 20G<26 158.986 324.993 449>
VStem: 13 110<0 110> 26 119<316 435> 343 119<0 119>
DStem2: 145 435 26 435 0.588945 -0.808173<0 174.463 269.883 468.166>
LayerCount: 2
Fore
SplineSet
462 0 m 1xd8
 343 0 l 1
 230 163 l 1
 123 0 l 1
 13 0 l 1xe8
 177 229 l 1
 26 435 l 1
 145 435 l 1
 245 292 l 1
 338 435 l 1
 449 435 l 1
 299 229 l 1
 462 0 l 1xd8
EndSplineSet
EndChar

StartChar: y
Encoding: 91 121 155
Width: 469
GlyphClass: 2
Flags: W
HStem: -178 83<89.9488 162.361> 415 20G<11 130.763 344.697 458>
DStem2: 123 435 11 435 0.382352 -0.924017<0 326.019> 191 0 257 -100 0.351699 0.936113<-108.155 0 140.216 463.833>
LayerCount: 2
Fore
SplineSet
458 435 m 1
 257 -100 l 2
 240 -146 199 -178 137 -178 c 0
 82 -178 35 -149 10 -100 c 1
 78 -54 l 1
 90 -80 107 -95 133 -95 c 0
 162 -95 173 -52 191 0 c 1
 11 435 l 1
 123 435 l 1
 241 131 l 1
 352 435 l 1
 458 435 l 1
EndSplineSet
EndChar

StartChar: z
Encoding: 92 122 156
Width: 424
GlyphClass: 2
Flags: W
HStem: 0 66<145 382> 366 69<52 271>
DStem2: 41 81 145 66 0.628652 0.777686<53.7146 366.231>
LayerCount: 2
Fore
SplineSet
382 0 m 1
 41 0 l 1
 41 81 l 1
 271 366 l 1
 52 366 l 1
 52 435 l 1
 377 435 l 1
 377 353 l 1
 145 66 l 1
 382 66 l 1
 382 0 l 1
EndSplineSet
EndChar

StartChar: braceleft
Encoding: 93 123 157
Width: 414
GlyphClass: 2
Flags: W
HStem: -411 79<307.937 360> 772 78<307.937 360>
VStem: 68 91<200.586 239.012> 169 80<-170.818 117.731 321.981 610.574>
LayerCount: 2
Fore
SplineSet
360 -411 m 1
 181 -411 169 -205 169 56 c 0
 169 142 68 164 68 220 c 0
 68 274 169 299 169 384 c 0
 169 644 181 850 360 850 c 1
 360 772 l 1
 264 772 249 628 249 370 c 0
 249 265 159 232 159 220 c 0
 159 207 249 176 249 69 c 0
 249 -188 264 -332 360 -332 c 1
 360 -411 l 1
EndSplineSet
EndChar

StartChar: bar
Encoding: 94 124 158
Width: 321
GlyphClass: 2
Flags: W
VStem: 122 76<-225 692>
LayerCount: 2
Fore
SplineSet
198 -225 m 1
 122 -225 l 1
 122 692 l 1
 198 692 l 1
 198 -225 l 1
EndSplineSet
EndChar

StartChar: braceright
Encoding: 95 125 159
Width: 413
GlyphClass: 2
Flags: W
HStem: -411 80<54 105.54> 772 78<54 105.54>
VStem: 164 81<-177.597 117.945 322.366 610.574> 255 89<200.623 239.055>
LayerCount: 2
Fore
SplineSet
344 220 m 0
 344 165 245 141 245 56 c 0
 245 -205 233 -411 54 -411 c 1
 54 -331 l 1
 149 -331 164 -187 164 70 c 0
 164 175 255 207 255 220 c 0
 255 232 164 264 164 370 c 0
 164 628 149 772 54 772 c 1
 54 850 l 1
 233 850 245 645 245 385 c 0
 245 299 344 275 344 220 c 0
EndSplineSet
EndChar

StartChar: asciitilde
Encoding: 96 126 160
Width: 555
GlyphClass: 2
Flags: W
HStem: 166 71<295.414 424.508> 224 70<126.503 249.479>
LayerCount: 2
Fore
SplineSet
501 229 m 1x80
 456 186 406 166 362 166 c 0x80
 280 166 237 224 193 224 c 0x40
 165 224 134 215 78 166 c 1x80
 54 231 l 1
 102 278 149 294 193 294 c 0x40
 274 294 299 237 362 237 c 0
 391 237 421 252 456 282 c 1
 501 229 l 1x80
EndSplineSet
EndChar

StartChar: .notdef
Encoding: -1 -1 161
Width: 0
GlyphClass: 1
LayerCount: 2
Back
SplineSet
-34 844 m 4
 -34 728 -99 625 -306 625 c 4
 -456 625 -537 682 -537 765 c 4
 -537 823 -499 865 -433 865 c 4
 -374 865 -334 836 -334 781 c 4
 -334 757.572 -339.188 737.955 -346.188 722.116 c 5
 -333.716 721.376 -320.307 721 -306 721 c 4
 -172 721 -130 757 -125 828 c 4
 -122 857 -113 864 -83 864 c 4
 -51 864 -34 860 -34 844 c 4
-419.244 733.562 m 5
 -412.183 745.294 -407 758.249 -407 771 c 4
 -407 792 -420 797 -435 797 c 4
 -453 797 -461 789 -461 771 c 4
 -461 754.723 -446.511 742.068 -419.244 733.562 c 5
EndSplineSet
EndChar

StartChar: uni0EDF
Encoding: 162 3807 162
Width: 733
GlyphClass: 1
Flags: W
HStem: 0 76<187.996 430.915> 229 61<458 489> 349 70<148.516 211.054> 359 51<357.109 413.112> 484 74<151.913 209.709>
VStem: 50 98<324.677 356 420.296 480.797> 53 105<103.905 180.326> 213 81<421.638 482.529> 295 61<302.996 358.596> 414 58<294.445 358.4> 489 107<129.869 229 310 554.5> 619 79<311.336 415.078>
AnchorPoint: "cabove" 340 600 basechar 0
AnchorPoint: "udia" 300 600 basechar 0
AnchorPoint: "cbelow" 440 0 basechar 0
AnchorPoint: "ldia" 440 0 basechar 0
LayerCount: 2
Fore
SplineSet
148 428 m 1xedf0
 159 423 170 419 181 419 c 0
 193 419 213 429 213 449 c 0
 213 472 197 484 182 484 c 0
 155 484 147 460 148 449 c 1
 148 428 l 1xedf0
148 356 m 1
 156 295 274 318 274 245 c 0
 274 171 158 216 158 142 c 0
 158 102 196 76 332 76 c 0
 461 76 489 142 489 199 c 2
 489 229 l 1
 359 233 295 270 295 330 c 0
 295 387 341 410 384 410 c 0
 434 410 472 385 472 331 c 0
 472 308 459 290 458 290 c 1
 463 290 476 289 489 289 c 1
 489 524 l 2
 489 556 517 558 542 558 c 0
 571 558 596 557 596 524 c 2
 596 310 l 1
 613 324 619 346 619 371 c 0
 619 407 635 418 658 418 c 0
 681 418 698 412 698 363 c 0
 698 320 674 262 596 239 c 1
 596 197 l 2
 596 78 510 0 333 0 c 0
 194 0 53 27 53 146 c 0xdbf0
 53 213 107 249 174 253 c 1
 96 278 50 316 50 396 c 2
 50 428 l 2
 50 505 98 558 184 558 c 0
 253 558 294 505 294 454 c 0
 294 395 252 349 183 349 c 0
 172 349 159 352 148 356 c 1
401 294 m 1
 408 304 414 316 414 329 c 0
 414 350 405 359 384 359 c 0
 364 359 356 349 356 331 c 0
 356 315 370 302 401 294 c 1
EndSplineSet
EndChar

StartChar: uni0EDE
Encoding: 163 3806 163
Width: 789
GlyphClass: 1
Flags: W
HStem: 0 71<127.084 187.006> 135 74<126.977 188.484> 229 61<512 543> 348 73<127.204 188.507> 359 51<411.109 465.554> 487 71<126.801 186.363 370.011 500.285>
VStem: 49 76<72.9702 132.963 423.374 484.94> 189 108<72.672 133.93 204 352 422.221 433.338> 349 61<302.996 358.596> 467 58<294.445 358.458> 543 107<2.86156 229 311 445.251> 672 79<313.15 414.725>
AnchorPoint: "cabove" 422 599 basechar 0
AnchorPoint: "udia" 326 600 basechar 0
AnchorPoint: "cbelow" 480 0 basechar 0
AnchorPoint: "ldia" 490 0 basechar 0
LayerCount: 2
Fore
SplineSet
189 128 m 1xe7f0
 178 132 166 135 156 135 c 0
 141 135 125 125 125 103 c 0
 125 83 139 71 156 71 c 0
 178 71 189 88 189 103 c 2
 189 128 l 1xe7f0
189 431 m 1
 189 447 l 2
 189 469 180 487 156 487 c 0
 136 487 125 471 125 453 c 0
 125 436 137 421 157 421 c 0xf7f0
 167 421 178 425 189 431 c 1
280 500 m 1
 322 530 375 558 445 558 c 0
 564 558 650 503 650 333 c 2
 650 311 l 1
 667 325 672 346 672 371 c 0
 672 407 689 418 712 418 c 0
 735 418 751 412 751 363 c 0
 751 320 728 262 650 239 c 1
 650 34 l 2
 650 1 624 0 597 0 c 0
 572 0 543 0 543 34 c 2
 543 229 l 1
 412 233 349 270 349 330 c 0
 349 387 395 410 438 410 c 0xeff0
 488 410 525 385 525 331 c 0
 525 308 513 290 512 290 c 1
 517 290 530 289 543 289 c 1
 543 356 l 2
 543 428 524 481 437 481 c 0
 380 481 338 449 297 417 c 1
 297 175 l 2
 297 76 267 0 164 0 c 0
 95 0 49 43 49 103 c 0
 49 162 92 209 156 209 c 0
 167 209 178 207 189 204 c 1
 189 352 l 1
 179 349 168 348 156 348 c 0
 93 348 49 395 49 453 c 0
 49 511 91 558 165 558 c 0
 217 558 258 539 280 500 c 1
454 294 m 1
 461 304 467 316 467 329 c 0
 467 350 459 359 438 359 c 0
 418 359 410 349 410 331 c 0
 410 315 423 302 454 294 c 1
EndSplineSet
EndChar

